<?xml version="1.0" encoding="UTF-8" standalone="no"?>
<!-- Created with Inkscape (http://www.inkscape.org/) -->

<svg
   xmlns:dc="http://purl.org/dc/elements/1.1/"
   xmlns:cc="http://creativecommons.org/ns#"
   xmlns:rdf="http://www.w3.org/1999/02/22-rdf-syntax-ns#"
   xmlns:svg="http://www.w3.org/2000/svg"
   xmlns="http://www.w3.org/2000/svg"
   xmlns:xlink="http://www.w3.org/1999/xlink"
   version="1.1"
   width="50"
   height="49.88488"
   viewBox="0 0 50.000001 49.884879"
   id="Layer_1"
   xml:space="preserve"><metadata
     id="metadata3268"><rdf:RDF><cc:Work
         rdf:about=""><dc:format>image/svg+xml</dc:format><dc:type
           rdf:resource="http://purl.org/dc/dcmitype/StillImage" /><dc:title></dc:title></cc:Work></rdf:RDF></metadata><defs
     id="defs3266" /><radialGradient
     cx="57.388199"
     cy="57.021"
     r="264.57971"
     id="SVGID_1_"
     gradientUnits="userSpaceOnUse"
     gradientTransform="matrix(0.17629284,0,0,0.17629284,-1.3465248,-1.3394739)"><stop
       id="stop3234"
       style="stop-color:#9dd5f6;stop-opacity:1"
       offset="0" /><stop
       id="stop3236"
       style="stop-color:#98d3f5;stop-opacity:1"
       offset="0.0711" /><stop
       id="stop3238"
       style="stop-color:#89cef3;stop-opacity:1"
       offset="0.1575" /><stop
       id="stop3240"
       style="stop-color:#70c6ef;stop-opacity:1"
       offset="0.2516" /><stop
       id="stop3242"
       style="stop-color:#4ebbea;stop-opacity:1"
       offset="0.35139999" /><stop
       id="stop3244"
       style="stop-color:#23ade3;stop-opacity:1"
       offset="0.45460001" /><stop
       id="stop3246"
       style="stop-color:#0da6e0;stop-opacity:1"
       offset="0.5" /><stop
       id="stop3248"
       style="stop-color:#2e77bc;stop-opacity:1"
       offset="1" /></radialGradient><path
     d="M 49.705064,-8.2571555e-7 H 1.7629214e-4 V 49.884881 H 49.705064 V 33.421597 c 0.197449,-0.285418 0.294937,-0.65052 0.294937,-1.096894 0,-0.510897 -0.09749,-0.827342 -0.294937,-1.093897"
     id="path3250"
     style="fill:url(#SVGID_1_)" /><g
     transform="matrix(0.17629284,0,0,0.17629284,-1.3465248,-1.3394739)"
     id="g3252"><defs
       id="defs3254"><path
         d="M 289.584,7.598 H 7.639 v 282.966 h 281.945 v -93.386 c 1.12,-1.619 1.673,-3.69 1.673,-6.222 0,-2.898 -0.553,-4.693 -1.673,-6.205"
         id="SVGID_2_" /></defs><clipPath
       id="SVGID_3_"><use
         id="use3258"
         style="overflow:visible"
         x="0"
         y="0"
         width="300"
         height="300"
         xlink:href="#SVGID_2_" /></clipPath></g><path
     d="M 4.4804828,21.585999 3.5242703,19.255938 2.5735229,21.585999 M 25.545714,20.658171 c -0.191981,0.116529 -0.419046,0.120408 -0.691066,0.120408 h -1.697171 v -1.29822 h 1.720265 c 0.243461,0 0.497499,0.01092 0.662509,0.105423 0.181227,0.08515 0.29335,0.266377 0.29335,0.516714 0,0.255449 -0.106657,0.461005 -0.287887,0.555675 z m 12.107442,0.927828 -0.96679,-2.330061 -0.961502,2.330061 h 1.928292 z m -22.569011,2.522046 h -1.432203 l -0.0053,-4.577619 -2.025781,4.577619 H 10.394257 L 8.3631564,19.526371 v 4.581674 H 5.5216683 L 4.9848566,22.80436 H 2.0760246 L 1.5337478,24.108045 H 0.01639523 L 2.518167,18.263233 h 2.075672 l 2.376075,5.533832 v -5.533832 h 2.2801716 l 1.8283334,3.965003 1.679542,-3.965003 h 2.326007 v 5.844812 z m 5.708187,0 H 16.12533 v -5.844812 h 4.667002 v 1.217126 H 17.52245 v 1.053527 h 3.191431 v 1.198086 H 17.52245 v 1.167235 h 3.269882 v 1.208838 z m 6.580307,-4.270693 c 0,0.931883 -0.621963,1.413339 -0.984421,1.557899 0.305693,0.116354 0.566782,0.32191 0.691068,0.49221 0.197272,0.290706 0.231296,0.550387 0.231296,1.072389 v 1.148195 h -1.409108 l -0.0053,-0.73708 c 0,-0.351703 0.03367,-0.857489 -0.220543,-1.138674 -0.204148,-0.205559 -0.515304,-0.250159 -1.018268,-0.250159 h -1.499722 v 2.125913 H 21.7607 v -5.844812 h 3.213288 c 0.713987,0 1.240045,0.01886 1.691705,0.279953 0.441968,0.261089 0.706937,0.642235 0.706937,1.294166 z m 2.235745,4.270693 H 28.18288 v -5.844812 h 1.425504 v 5.844812 z m 16.53768,0 h -1.97977 l -2.648095,-4.386871 v 4.386871 h -2.84519 L 38.129323,22.80436 H 35.22719 l -0.527469,1.303685 h -1.634763 c -0.67908,0 -1.538861,-0.1502 -2.025783,-0.646465 -0.490974,-0.496264 -0.746422,-1.168469 -0.746422,-2.231338 0,-0.866833 0.152669,-1.659269 0.753122,-2.285461 0.451663,-0.46647 1.15895,-0.681548 2.121686,-0.681548 h 1.352519 v 1.252384 h -1.324137 c -0.509838,0 -0.797723,0.07581 -1.075033,0.346239 -0.238171,0.246105 -0.401596,0.711341 -0.401596,1.323959 0,0.626194 0.124465,1.077678 0.384143,1.372617 0.215078,0.231296 0.605919,0.301461 0.973666,0.301461 h 0.627426 l 1.969014,-4.596484 h 2.093302 l 2.365321,5.528367 v -5.528367 h 2.127148 l 2.455761,4.070603 v -4.070603 h 1.430969 v 5.844636 z M 1.7629214e-4,25.256066 H 2.3871814 l 0.5382221,-1.298221 h 1.2049617 l 0.5368117,1.298221 h 4.6966177 v -0.99253 l 0.4192248,0.996759 H 12.22115 l 0.419224,-1.011567 v 1.007338 H 24.31237 l -0.0055,-2.131029 h 0.225832 c 0.158135,0.0055 0.204324,0.0201 0.204324,0.281188 v 1.849841 h 6.036794 v -0.496089 c 0.486922,0.260914 1.244276,0.496089 2.240859,0.496089 h 2.539676 l 0.543511,-1.298221 h 1.204961 l 0.531523,1.298221 h 4.894065 v -1.23317 l 0.741137,1.23317 h 3.921809 v -8.151782 h -3.881222 v 0.962735 l -0.543511,-0.962735 h -3.982631 v 0.962735 l -0.499085,-0.962735 h -5.379578 c -0.900504,0 -1.692058,0.125696 -2.331473,0.47599 v -0.47599 h -3.712374 v 0.47599 c -0.406883,-0.361048 -0.961324,-0.47599 -1.577821,-0.47599 H 11.920922 L 11.010898,19.209749 10.07637,17.104284 H 5.8044421 v 0.962735 L 5.3351506,17.104284 H 1.6918824 L 0,20.980081 v 4.275985 z"
     id="path3260"
     style="fill:#ffffff" /><path
     d="m 49.705064,29.567307 h -2.546197 c -0.254215,0 -0.423104,0.0095 -0.565373,0.105598 -0.147379,0.09467 -0.204147,0.235176 -0.204147,0.420636 0,0.220541 0.124464,0.370567 0.305517,0.435444 0.14738,0.0513 0.305691,0.06628 0.538397,0.06628 l 0.757178,0.02028 c 0.764053,0.01885 1.274067,0.150201 1.58505,0.470526 0.05659,0.04459 0.09062,0.09467 0.129575,0.144736 m 0,2.190791 c -0.339364,0.496265 -1.000637,0.747834 -1.895853,0.747834 h -2.697986 v -1.253617 h 2.687055 c 0.266554,0 0.453073,-0.03508 0.565372,-0.144737 0.09731,-0.09044 0.165187,-0.221777 0.165187,-0.381321 0,-0.170299 -0.06787,-0.305517 -0.170653,-0.386611 -0.101367,-0.08921 -0.248925,-0.129752 -0.49221,-0.129752 -1.311794,-0.04459 -2.94832,0.04055 -2.94832,-1.80947 0,-0.847967 0.538396,-1.740539 2.00445,-1.740539 h 2.782782 v -1.163179 h -2.585512 c -0.780271,0 -1.347053,0.18687 -1.748471,0.4774 v -0.4774 h -3.824321 c -0.611561,0 -1.329426,0.151612 -1.668964,0.4774 v -0.4774 h -6.829233 v 0.4774 c -0.543511,-0.392074 -1.460587,-0.4774 -1.883865,-0.4774 h -4.504636 v 0.4774 c -0.429979,-0.416404 -1.386192,-0.4774 -1.969014,-0.4774 h -5.041448 l -1.15366,1.248505 -1.080498,-1.248505 H 9.8843877 v 8.157422 h 7.3891383 l 1.188743,-1.268251 1.119811,1.268251 4.554702,0.0041 v -1.918931 h 0.447784 c 0.604332,0.0093 1.317084,-0.015 1.945922,-0.286827 v 2.201544 h 3.756799 v -2.126126 h 0.18123 c 0.231297,0 0.254036,0.0095 0.254036,0.240638 v 1.885275 h 11.412496 c 0.724563,0 1.481918,-0.18546 1.901318,-0.522002 v 0.522002 h 3.619997 c 0.7533,0 1.488971,-0.105599 2.0487,-0.376032 v -1.519644 z m -5.572795,-2.335527 c 0.272022,0.281539 0.417815,0.636944 0.417815,1.238633 0,1.257673 -0.785736,1.844728 -2.194668,1.844728 h -2.721081 v -1.253617 h 2.71015 c 0.264968,0 0.452896,-0.03508 0.57066,-0.144737 0.09608,-0.09044 0.16501,-0.221777 0.16501,-0.381321 0,-0.170299 -0.07457,-0.305517 -0.170475,-0.386611 -0.106832,-0.08921 -0.254215,-0.129752 -0.4975,-0.129752 -1.306505,-0.04459 -2.94268,0.04055 -2.94268,-1.80947 0,-0.847967 0.532757,-1.740539 1.9974,-1.740539 h 2.800763 v 1.244275 h -2.562769 c -0.254038,0 -0.419224,0.0095 -0.559729,0.1056 -0.153022,0.09467 -0.209789,0.235175 -0.209789,0.420635 0,0.220542 0.129929,0.370567 0.305691,0.435443 0.147382,0.0513 0.305692,0.06629 0.543688,0.06629 l 0.752066,0.02027 c 0.758411,0.01851 1.279004,0.149673 1.595448,0.470173 z m -12.606348,-0.36105 c -0.18687,0.110888 -0.41799,0.120407 -0.689832,0.120407 H 29.138916 V 29.5324 h 1.720265 c 0.24875,0 0.497676,0.0053 0.66674,0.1056 0.181053,0.09467 0.289296,0.275721 0.289296,0.525881 0,0.250161 -0.108243,0.451662 -0.289296,0.56114 z m 0.843736,0.727559 c 0.310983,0.114768 0.565196,0.320502 0.68437,0.4908 0.197272,0.285419 0.225832,0.551798 0.231472,1.067102 v 1.158948 h -1.402584 v -0.731438 c 0,-0.351706 0.03384,-0.872475 -0.225833,-1.144318 -0.204147,-0.209435 -0.515303,-0.2595 -1.024965,-0.2595 h -1.493024 v 2.135257 h -1.40382 v -5.846223 h 3.225452 c 0.707288,0 1.222417,0.0312 1.680955,0.275898 0.440907,0.266379 0.718217,0.631305 0.718217,1.298221 -1.75e-4,0.933118 -0.622492,1.409285 -0.99024,1.555254 z m 1.76487,-3.129373 h 4.662769 v 1.209016 H 35.52583 v 1.062869 h 3.191605 V 31.78789 H 35.52583 v 1.163181 l 3.271466,0.0053 v 1.213071 h -4.662769 v -5.846188 z m -9.42585,2.697988 h -1.805416 v -1.488794 h 1.821635 c 0.504372,0 0.854492,0.205557 0.854492,0.716807 0,0.505606 -0.333899,0.771987 -0.870711,0.771987 z m -3.196895,2.616537 -2.144955,-2.381363 2.144955,-2.305734 v 4.687097 z m -5.539298,-0.686661 h -3.43489 v -1.16318 h 3.067144 v -1.192798 h -3.067144 v -1.062869 h 3.502587 l 1.528106,1.703695 -1.595803,1.715152 z m 11.106802,-2.701863 c 0,1.624009 -1.211661,1.959317 -2.43284,1.959317 h -1.743185 v 1.960906 h -2.715437 l -1.720267,-1.935342 -1.787785,1.935342 h -5.533833 v -5.846223 h 5.618982 l 1.718854,1.916303 1.777033,-1.916303 h 4.464088 c 1.108705,0 2.35439,0.306925 2.35439,1.926 z"
     id="path3262"
     style="fill:#ffffff" /></svg>