<?xml version="1.0" encoding="UTF-8" standalone="no"?>
<!-- Created with Inkscape (http://www.inkscape.org/) -->
<svg 
  xmlns:dc="http://purl.org/dc/elements/1.1/" 
  xmlns:cc="http://creativecommons.org/ns#" 
  xmlns:rdf="http://www.w3.org/1999/02/22-rdf-syntax-ns#" 
  xmlns:svg="http://www.w3.org/2000/svg" 
  xmlns="http://www.w3.org/2000/svg" version="1.1" width="100%" height="100%" viewBox="0 0 35.000001 35.000001" id="svg2">
  <defs id="defs4">
    <filter color-interpolation-filters="sRGB" id="filter3891">
      <feGaussianBlur stdDeviation="7.2374999" id="feGaussianBlur3893" />
    </filter>
  </defs>
  <g transform="scale(0.13671875,0.13671875)" id="g3007">
    <g transform="translate(-96.5,-252.09375)" id="g3000">
      <rect width="250" height="250" rx="30" ry="30" x="99.510002" y="255.09" id="rect2818" style="fill:#ffcc00;stroke:#000000;stroke-width:6" />
      <path d="m 351.51,320.65 v 2.875 h -73.719 l -16.5,16.5 v 40.625 h 90.219 v 2.875 h -90.219 v 40.625 l 16.5,16.5 h 73.719 v 2.875 h -74.906 l -18.188,-18.188 0.25,-0.25 h -0.25 v -85.719 h 0.5313 l -0.5313,-0.53125 18.188,-18.188 h 74.906 z" id="path3629" />
      <path d="m 188.28,422.65 v 2.875 h 34.812 v 81.562 h 2.8437 v -81.562 h 34.844 v -2.875 h -72.5 z" id="rect3596" />
      <path d="m 223.09,255.81 v 82.844 h -34.812 v 2.875 h 37.656 V 255.81 h -2.8437 z" id="rect3598" />
      <path d="m 97.53,320.65 v 2.875 h 73.719 l 16.5,16.5 V 380.65 H 97.53 v 2.875 h 90.219 v 40.625 l -16.5,16.5 H 97.53 v 2.875 h 74.906 l 18.188,-18.188 -0.25,-0.25 h 0.25 v -85.719 h -0.5312 l 0.5312,-0.53125 -18.188,-18.188 H 97.53 z" id="rect3602" />
    </g>
  </g>
  <metadata id="metadata14">
    <rdf:RDF>
      <cc:Work>
        <dc:format>image/svg+xml</dc:format>
        <dc:type rdf:resource="http://purl.org/dc/dcmitype/StillImage" />
        <cc:license rdf:resource="http://creativecommons.org/licenses/publicdomain/" />
        <dc:publisher>
          <cc:Agent rdf:about="http://openclipart.org/">
            <dc:title>Openclipart</dc:title>
          </cc:Agent>
        </dc:publisher>
        <dc:title></dc:title>
        <dc:date>2010-09-18T09:14:12</dc:date>
        <dc:description>cell phone, clip art, clipart, communication, hardware, mobile phone, sim card, </dc:description>
        <dc:source>http://openclipart.org/detail/85345/sim-card---mobile-phone-by-sheikh_tuhin</dc:source>
        <dc:creator>
          <cc:Agent>
            <dc:title>sheikh_tuhin</dc:title>
          </cc:Agent>
        </dc:creator>
        <dc:subject>
          <rdf:Bag>
            <rdf:li>cell phone</rdf:li>
            <rdf:li>clip art</rdf:li>
            <rdf:li>clipart</rdf:li>
            <rdf:li>communication</rdf:li>
            <rdf:li>hardware</rdf:li>
            <rdf:li>mobile phone</rdf:li>
            <rdf:li>sim card</rdf:li>
          </rdf:Bag>
        </dc:subject>
      </cc:Work>
      <cc:License rdf:about="http://creativecommons.org/licenses/publicdomain/">
        <cc:permits rdf:resource="http://creativecommons.org/ns#Reproduction" />
        <cc:permits rdf:resource="http://creativecommons.org/ns#Distribution" />
        <cc:permits rdf:resource="http://creativecommons.org/ns#DerivativeWorks" />
      </cc:License>
    </rdf:RDF>
  </metadata>
</svg>
