<?xml version="1.0" encoding="UTF-8" standalone="no"?>
<!-- Generator: Adobe Illustrator 16.0.0, SVG Export Plug-In . SVG Version: 6.00 Build 0)  -->
<svg 
  xmlns:dc="http://purl.org/dc/elements/1.1/" 
  xmlns:cc="http://creativecommons.org/ns#" 
  xmlns:rdf="http://www.w3.org/1999/02/22-rdf-syntax-ns#" 
  xmlns:svg="http://www.w3.org/2000/svg" 
  xmlns="http://www.w3.org/2000/svg" 
  xmlns:sodipodi="http://sodipodi.sourceforge.net/DTD/sodipodi-0.dtd" 
  xmlns:inkscape="http://www.inkscape.org/namespaces/inkscape" version="1.1" id="Layer_1" x="0px" y="0px" width="49.999996" height="39.612278" viewBox="0 0 49.999996 39.612278" enable-background="new 0 0 1945 504" xml:space="preserve" inkscape:version="0.48.4 r9939" sodipodi:docname="Diners_Club_Logo3.svg">
  <g id="g3578" transform="matrix(0.07859534,0,0,0.07859534,0,1.4175914e-6)">
    <path d="M 372.69,504 C 510.44,504.659 636.17,391.659 636.17,254.19 636.17,103.86 510.44,-0.05 372.69,0 H 254.14 C 114.74,-0.05 0,103.891 0,254.19 0,391.689 114.74,504.66 254.14,504 h 118.55 z" id="path3338" inkscape:connector-curvature="0" style="fill:#0079be" />
    <path d="M 254.701,20.83 C 127.321,20.87 24.101,124.12 24.071,251.551 24.101,378.96 127.32,482.2 254.701,482.24 382.111,482.2 485.352,378.96 485.37,251.551 485.351,124.12 382.111,20.87 254.701,20.83 z m -146.19,230.721 0,0 c 0.12,-62.27 39.01,-115.37 93.85,-136.471 v 272.91 c -54.84,-21.089 -93.731,-74.16 -93.85,-136.439 z m 198.51,136.499 0,0 V 115.071 c 54.86,21.05 93.81,74.18 93.91,136.48 -0.1,62.319 -39.05,115.409 -93.91,136.499 z" id="path3340" inkscape:connector-curvature="0" style="fill:#ffffff" />
    <path d="M 372.69,504 C 510.44,504.659 636.17,391.659 636.17,254.19 636.17,103.86 510.44,-0.05 372.69,0 H 254.14 C 114.74,-0.05 0,103.891 0,254.19 0,391.689 114.74,504.66 254.14,504 h 118.55 z" id="path3416" inkscape:connector-curvature="0" style="fill:#0079be" />
    <path d="M 254.701,20.83 C 127.321,20.87 24.101,124.12 24.071,251.551 24.101,378.96 127.32,482.2 254.701,482.24 382.111,482.2 485.352,378.96 485.37,251.551 485.351,124.12 382.111,20.87 254.701,20.83 z m -146.19,230.721 0,0 c 0.12,-62.27 39.01,-115.37 93.85,-136.471 v 272.91 c -54.84,-21.089 -93.731,-74.16 -93.85,-136.439 z m 198.51,136.499 0,0 V 115.071 c 54.86,21.05 93.81,74.18 93.91,136.48 -0.1,62.319 -39.05,115.409 -93.91,136.499 z" id="path3418" inkscape:connector-curvature="0" style="fill:#ffffff" />
  </g>
</svg>