<?xml version="1.0" encoding="UTF-8" standalone="no"?>
<!-- Created with Inkscape (http://www.inkscape.org/) -->

<svg
   xmlns:dc="http://purl.org/dc/elements/1.1/"
   xmlns:cc="http://creativecommons.org/ns#"
   xmlns:rdf="http://www.w3.org/1999/02/22-rdf-syntax-ns#"
   xmlns:svg="http://www.w3.org/2000/svg"
   xmlns="http://www.w3.org/2000/svg"
   xmlns:xlink="http://www.w3.org/1999/xlink"
   version="1.1"
   width="250.00104"
   height="41.498997"
   id="svg78271">
  <defs
     id="defs78273">
    <radialGradient
       cx="121.25"
       cy="97.588577"
       r="77.916664"
       fx="141.25"
       fy="77.588577"
       id="radialGradient72834"
       xlink:href="#radialGradient3202"
       gradientUnits="userSpaceOnUse" />
    <radialGradient
       cx="121.25"
       cy="97.588577"
       r="77.916664"
       fx="141.25"
       fy="77.588577"
       id="radialGradient3202"
       gradientUnits="userSpaceOnUse">
      <stop
         id="stop2891"
         style="stop-color:#f0f0f0;stop-opacity:1"
         offset="0" />
      <stop
         id="stop2893"
         style="stop-color:#ff8330;stop-opacity:1"
         offset="1" />
    </radialGradient>
    <radialGradient
       cx="121.25"
       cy="97.588577"
       r="77.916664"
       fx="141.25"
       fy="77.588577"
       id="radialGradient78349"
       xlink:href="#radialGradient3202"
       gradientUnits="userSpaceOnUse" />
  </defs>
  <metadata
     id="metadata78276">
    <rdf:RDF>
      <cc:Work
         rdf:about="">
        <dc:format>image/svg+xml</dc:format>
        <dc:type
           rdf:resource="http://purl.org/dc/dcmitype/StillImage" />
        <dc:title></dc:title>
      </cc:Work>
    </rdf:RDF>
  </metadata>
  <g
     transform="translate(-252.14253,-303.04125)"
     id="layer1">
    <g
       transform="translate(-628.57143,740)"
       id="g78333">
      <g
         id="g78318">
        <path
           d="m 900.9559,-406.27234 c -3.25849,3.02096 -7.92857,3.20391 -12.13479,3.13451 -0.81555,0.19363 -0.29025,-0.95359 -0.43813,-1.42763 0,-8.20059 0,-16.40117 0,-24.60175 4.1568,-0.0406 8.73662,-0.0667 12.09187,2.76255 5.04763,4.0191 6.14216,11.8108 2.8212,17.2525 -0.62941,1.07002 -1.41189,2.05395 -2.34015,2.88024 m -8.9658,-29.56795 c -3.75872,0 -7.51743,0 -11.27614,0 0,13.12233 0,26.24466 0,39.36699 4.54471,-0.0376 9.09338,0.0858 13.63493,-0.0845 4.94856,-0.24946 9.80815,-2.31386 13.2181,-5.94642 4.65786,-4.72998 6.56553,-11.86236 5.04763,-18.30679 -1.2297,-5.98926 -5.67803,-11.10148 -11.35798,-13.30835 -2.93127,-1.19555 -6.10934,-1.72289 -9.26727,-1.72149"
           id="path32942"
           style="fill:#211e1e" />
        <path
           d="m 916.65395,-396.48059 c 2.55919,0 5.11837,0 7.67756,0 0,-13.12233 0,-26.24466 0,-39.36699 -2.55919,0 -5.11837,0 -7.67756,0 0,13.12233 0,26.24466 0,39.36699 z"
           id="path32944"
           style="fill:#211e1e" />
        <path
           d="m 943.10209,-420.75162 c -2.03076,-0.85735 -4.51131,-1.4866 -5.67601,-3.52642 -1.0168,-2.23871 0.69407,-4.74723 2.89161,-5.38053 2.76966,-1.02843 6.00074,-0.1619 7.98965,1.99193 0.63523,1.28453 1.12072,0.33686 1.64137,-0.38931 1.04129,-1.36394 2.08258,-2.72787 3.12387,-4.09181 -4.63849,-4.13536 -11.76185,-5.73042 -17.5022,-3.04469 -4.03798,1.84684 -6.70107,6.26106 -6.32932,10.70418 0.0113,2.8491 1.41524,5.64559 3.82349,7.2099 3.44272,2.50815 7.83161,3.08435 11.43369,5.27365 2.73978,1.7753 2.60111,6.09931 0.12709,8.03537 -2.96954,2.37171 -7.54679,1.54249 -10.22162,-0.89694 -1.04956,-0.56026 -1.65825,-2.68186 -2.43741,-2.74705 -1.58093,1.52336 -3.16186,3.04673 -4.74278,4.57009 2.41761,3.73052 6.24954,6.72458 10.75131,7.29027 5.01637,0.81312 10.73163,-0.56631 13.89885,-4.77883 2.70451,-3.55589 3.24872,-8.53967 1.77938,-12.70638 -1.52008,-3.72809 -5.49433,-5.49498 -8.98236,-6.91769 -0.5198,-0.20585 -1.04277,-0.40365 -1.56789,-0.59553"
           id="path32946"
           style="fill:#211e1e" />
        <path
           d="m 956.8522,-416.16825 c -0.1037,7.16263 3.85678,14.2301 10.12149,17.74546 6.11365,3.55063 13.98906,3.7163 20.2797,0.50334 0,-3.01433 0,-6.02866 0,-9.043 -2.46882,2.635 -5.93054,4.5414 -9.62737,4.30699 -4.89301,0.0132 -9.72761,-2.9141 -11.63389,-7.48159 -2.58339,-5.77683 -1.08853,-13.34435 4.14738,-17.14025 4.41726,-3.38117 11.14219,-3.3146 15.35685,0.38893 0.94703,0.75777 2.0983,2.34375 1.75734,0.338 0,-2.59938 0,-5.19876 0,-7.79814 -4.82842,-2.66951 -10.71688,-3.11258 -15.94426,-1.42523 -7.41788,2.25756 -13.25772,8.99436 -14.25455,16.70954 -0.13524,0.95906 -0.20222,1.92764 -0.20217,2.89616"
           id="path32948"
           style="fill:#211e1e" />
        <path
           d="m 1048.1446,-409.39736 c -3.501,-8.81119 -7.0021,-17.62237 -10.5032,-26.43355 -2.7939,0 -5.5878,0 -8.3817,0 5.5677,13.45705 11.1355,26.91411 16.7033,40.37116 1.3797,0 2.7595,0 4.1393,0 5.6649,-13.45705 11.3299,-26.91411 16.9949,-40.37116 -2.7739,0 -5.5478,0 -8.3216,0 -3.5438,8.81118 -7.0876,17.62236 -10.6314,26.43355"
           id="path32950"
           style="fill:#211e1e" />
        <path
           d="m 1070.5615,-396.48059 c 7.2598,0 14.5195,0 21.7793,0 0,-2.22425 0,-4.44851 0,-6.67276 -4.7004,0 -9.4007,0 -14.1011,0 0,-3.541 0,-7.082 0,-10.62301 4.5257,0 9.0514,0 13.5772,0 0,-2.2214 0,-4.44281 0,-6.66422 -4.5258,0 -9.0515,0 -13.5772,0 0,-2.91415 0,-5.82831 0,-8.74247 4.7004,0 9.4007,0 14.1011,0 0,-2.2214 0,-4.44281 0,-6.66422 -7.2598,0 -14.5195,0 -21.7793,0"
           id="path32952"
           style="fill:#211e1e" />
        <path
           d="m 1107.343,-417.73076 c -0.75,0 -1.5,0 -2.25,0 0,-3.9733 0,-7.9466 0,-11.91989 2.8414,0.009 6.0738,-0.25883 8.2918,1.86879 1.9593,2.07267 1.929,5.66563 0.1904,7.8616 -1.5251,1.77184 -4.0116,2.18323 -6.2322,2.1896 m 15.4064,-6.50099 c 0.1171,-3.79516 -1.6949,-7.72742 -5.1018,-9.59097 -3.6375,-2.1661 -7.9642,-2.0628 -12.0529,-2.02892 -2.7235,0 -5.447,0 -8.1705,0 0,13.12233 0,26.24466 0,39.367 2.5563,0 5.1127,0 7.669,0 0,-5.27297 0,-10.54593 0,-15.81889 0.6328,-0.0712 1.2177,-0.0524 1.4398,0.6473 3.3988,5.05719 6.7976,10.11439 10.1963,15.17159 3.1461,0 6.2921,0 9.4381,0 -4.1309,-5.52783 -8.2618,-11.05565 -12.3928,-16.58348 3.696,-0.6355 7.1831,-3.13285 8.3109,-6.81176 0.4732,-1.39826 0.6635,-2.88044 0.6635,-4.35291"
           id="path32954"
           style="fill:#211e1e" />
        <path
           d="m 1127.4057,-433.35589 c -0.1453,0.0426 -0.1544,-0.051 -0.1374,-0.17076 0,-0.24364 0,-0.48728 0,-0.73092 0.2716,-0.005 0.6389,-0.008 0.7504,0.29372 0.1334,0.34349 -0.2082,0.63871 -0.5379,0.60615 l -0.037,0.001 -0.038,4.5e-4 z m 1.4599,-0.4723 c 0.025,-0.44035 -0.2703,-0.86545 -0.6975,-0.98375 -0.4596,-0.14327 -0.9457,-0.0728 -1.419,-0.0898 -0.096,0.0114 -0.2377,-0.0228 -0.3053,0.0171 0,1.15369 0,2.30738 0,3.46107 0.2748,0 0.5496,0 0.8245,0 0,-0.44945 0,-0.89889 0,-1.34834 0.3234,0.44945 0.6469,0.89889 0.9704,1.34834 0.3378,0 0.6756,0 1.0134,0 -0.3808,-0.47806 -0.7615,-0.95612 -1.1422,-1.43418 0.4508,-0.0986 0.7745,-0.50644 0.7557,-0.97042"
           id="path32956"
           style="fill:#211e1e" />
        <path
           d="m 1127.7078,-430.64754 c -1.0665,0.0188 -2.0583,-0.77246 -2.3215,-1.79824 -0.307,-1.05526 0.1534,-2.29094 1.1172,-2.83931 0.8572,-0.52186 2.0396,-0.40493 2.772,0.28363 0.8462,0.74038 1.075,2.06683 0.539,3.0527 -0.3982,0.7754 -1.2281,1.31028 -2.1067,1.30122 z m 0.018,-5.51338 c -1.1417,-0.0169 -2.2551,0.67612 -2.7355,1.71329 -0.5241,1.07097 -0.3399,2.44368 0.4671,3.3258 0.8006,0.92262 2.1887,1.27113 3.326,0.81857 1.1309,-0.42347 1.9314,-1.57967 1.9307,-2.78718 0.032,-1.24744 -0.7928,-2.45737 -1.9649,-2.88465 -0.3263,-0.12278 -0.6747,-0.18609 -1.0234,-0.18583 z"
           id="path32958"
           style="fill:#211e1e" />
        <g
           transform="matrix(1.0416753,0,0,1.0416753,336.08661,-1522.2191)"
           id="g39066"
           style="fill:#211e1e">
          <use
             id="use39068"
             x="185.9502"
             y="734.22101"
             width="240.00002"
             height="40.017803"
             xlink:href="#acj" />
        </g>
        <g
           transform="matrix(0.2659827,0,0,0.2659859,984.43476,-443.07312)"
           id="layer1-2">
          <path
             d="m 199.16666,97.588577 a 77.916664,77.916664 0 1 1 -155.833324,0 77.916664,77.916664 0 1 1 155.833324,0 z"
             transform="translate(-25.8333,3.33333)"
             id="path3194"
             style="fill:url(#radialGradient78349)" />
        </g>
      </g>
    </g>
  </g>
</svg>
