<?xml version="1.0" encoding="UTF-8" standalone="no"?>
<!-- Creator: CorelDRAW -->
<svg 
    xmlns:rdf="http://www.w3.org/1999/02/22-rdf-syntax-ns#" 
    xmlns="http://www.w3.org/2000/svg" fill-rule="evenodd" xml:space="preserve" height="34.668" width="45" version="1.1" 
    xmlns:cc="http://creativecommons.org/ns#" 
    xmlns:dc="http://purl.org/dc/elements/1.1/" viewBox="0 0 12.7 9.7841757">
    <metadata>
        <rdf:RDF>
            <cc:Work rdf:about="">
                <dc:format>image/svg+xml</dc:format>
                <dc:type rdf:resource="http://purl.org/dc/dcmitype/StillImage"/>
                <dc:title/>
            </cc:Work>
        </rdf:RDF>
    </metadata>
    <defs>
        <style type="text/css">
            .fil0 {fill:white}
            .fil1 {fill:url(#id0)}
            .fil3 {fill:url(#id1)}
            .fil2 {fill:url(#id2)}
        </style>
        <linearGradient id="id0" y2="43.335" gradientUnits="userSpaceOnUse" x2="106.25" y1="43.335" x1="75.414">
            <stop stop-color="#007B40" offset="0"/>
            <stop stop-color="#55B330" offset="1"/>
        </linearGradient>
        <linearGradient id="id1" y2="43.335" gradientUnits="userSpaceOnUse" x2="71.666" y1="43.335" x1="40.833">
            <stop stop-color="#6E2B2F" offset="0"/>
            <stop stop-color="#E30138" offset="1"/>
        </linearGradient>
        <linearGradient id="id2" y2="43.335" gradientUnits="userSpaceOnUse" x2="37.082" y1="43.335" x1="6.2494">
            <stop stop-color="#1D2970" offset="0"/>
            <stop stop-color="#006DBA" offset="1"/>
        </linearGradient>
    </defs>
    <g transform="matrix(0.1128913,0,0,0.1128913,-4.5529425e-5,0)">
        <path fill="#FFF" class="fil0" d="m112.5,69.17c0,9.6629-7.8317,17.498-17.498,17.498h-94.999v-69.168c-0.0026-9.6645,7.8302-17.5,17.497-17.5l95-0.0001v69.17h0.0001z"/>
        <path fill="url(#id0)" class="fil1" d="m81.526,44.854,0.0624,0,0.1206,0,0.1206,0,0.1207,0,0.1206,0,0.1206,0,0.1207,0,0.1206,0,0.1207,0,0.1206,0,0.1206,0,0.1207,0,0.1206,0,0.1206,0,0.1207,0,0.1206,0,0.1206,0,0.1207,0,0.1206,0,0.1206,0,0.1207,0,0.1206,0,0.1206,0,0.1207,0,0.1206,0,0.1206,0,0.1207,0,0.1206,0,0.1206,0,0.1207,0,0.1206,0,0.1207,0,0.1206,0,0.1206,0,0.1207,0,0.1206,0,0.1206,0,0.1207,0,0.1206,0,0.1206,0,0.1207,0,0.1206,0,0.1206,0,0.1207,0,0.1206,0,0.1206,0,0.1207,0,0.1206,0,0.1206,0,0.1207,0,0.1206,0,0.1206,0,0.1207,0,0.1206,0,0.1206,0,0.1207,0,0.1206,0,0.1207,0,0.1206,0,0.1206,0,0.1004,0,0.0203,0.0005c0.0372,0.0009,0.0778,0.0026,0.1206,0.0049,0.0387,0.0021,0.0792,0.0048,0.1206,0.0079,0.0397,0.0029,0.0802,0.0063,0.1207,0.01,0.0406,0.0037,0.081,0.0078,0.1206,0.0122,0.0415,0.0046,0.0821,0.0095,0.1206,0.0147,0.0432,0.0058,0.0839,0.0118,0.1207,0.0181,0.0265,0.0045,0.051,0.0091,0.0729,0.0138l0.0477,0.0108c0.0404,0.0094,0.0806,0.0196,0.1206,0.0307,0.0405,0.0112,0.0807,0.023,0.1207,0.0358,0.0405,0.0129,0.0807,0.0266,0.1206,0.0411,0.0405,0.0147,0.0807,0.0302,0.1206,0.0465,0.0406,0.0166,0.0808,0.0341,0.1207,0.0523,0.0406,0.0186,0.0808,0.0379,0.1206,0.0582,0.0406,0.0206,0.0808,0.0422,0.1206,0.0646,0.0407,0.0229,0.081,0.0469,0.1207,0.0716,0.0407,0.0254,0.081,0.0515,0.1206,0.0787,0.0408,0.028,0.0811,0.0568,0.1206,0.0866,0.0409,0.0309,0.0812,0.0628,0.1207,0.0957,0.041,0.0342,0.0812,0.0695,0.1206,0.1057,0.0412,0.0379,0.0815,0.0766,0.1207,0.1166,0.0414,0.0421,0.0815,0.0856,0.1206,0.1301,0.0415,0.0473,0.0817,0.0959,0.1206,0.1458,0.0419,0.0537,0.0821,0.1088,0.1207,0.1654,0.0422,0.062,0.0825,0.1256,0.1206,0.1909,0.043,0.0736,0.0832,0.1494,0.1206,0.2272,0.0444,0.0922,0.0848,0.1872,0.1207,0.2849,0.0483,0.1313,0.0887,0.2674,0.1206,0.4079,0.0552,0.2435,0.0849,0.5,0.0849,0.7678,0,0.2691-0.0296,0.5267-0.0849,0.771-0.0319,0.1409-0.0723,0.2774-0.1206,0.4089-0.036,0.098-0.0763,0.1931-0.1207,0.2856-0.0374,0.0778-0.0776,0.1537-0.1206,0.2274-0.0381,0.0654-0.0783,0.129-0.1206,0.191-0.0386,0.0566-0.0789,0.1118-0.1207,0.1655-0.0389,0.0499-0.0791,0.0984-0.1206,0.1457-0.0391,0.0445-0.0793,0.0879-0.1206,0.13-0.0392,0.04-0.0796,0.0787-0.1207,0.1165-0.0394,0.0361-0.0796,0.0711-0.1206,0.1052-0.0395,0.0328-0.0797,0.0647-0.1207,0.0955-0.0395,0.0297-0.0798,0.0584-0.1206,0.0863-0.0396,0.0271-0.0799,0.0532-0.1206,0.0784-0.0397,0.0246-0.08,0.0484-0.1207,0.0712-0.0397,0.0223-0.0799,0.0437-0.1206,0.0642-0.0398,0.0201-0.08,0.0394-0.1206,0.0579-0.0399,0.0181-0.0801,0.0353-0.1207,0.0518-0.0399,0.0161-0.0801,0.0316-0.1206,0.0461-0.0399,0.0143-0.0801,0.0278-0.1206,0.0405-0.04,0.0126-0.0802,0.0243-0.1207,0.0353-0.04,0.0108-0.0802,0.0209-0.1206,0.0302l-0.0477,0.0107c-0.0219,0.005-0.0464,0.0099-0.0729,0.0146-0.0368,0.0065-0.0775,0.0127-0.1207,0.0186-0.0385,0.0052-0.0791,0.0102-0.1206,0.0148-0.0396,0.0044-0.08,0.0084-0.1206,0.012-0.0405,0.0037-0.081,0.007-0.1207,0.0098-0.0414,0.003-0.0819,0.0056-0.1206,0.0076-0.0428,0.0022-0.0834,0.0038-0.1206,0.0047l-0.0647,0.0008h-0.056-0.1206-0.1206-0.1207-0.1206-0.1207-0.1206-0.1206-0.1207-0.1206-0.1206-0.1207-0.1206-0.1206-0.1207-0.1206-0.1206-0.1207-0.1206-0.1206-0.1207-0.1206-0.1206-0.1207-0.1206-0.1206-0.1207-0.1206-0.1206-0.1207-0.1206-0.1207-0.1206-0.1206-0.1207-0.1206-0.1206-0.1207-0.1206-0.1206-0.1207-0.1206-0.1206-0.1207-0.1206-0.1206-0.1207-0.1206-0.1206-0.1207-0.1206-0.1206-0.1207-0.1206-0.1207-0.1206-0.1206-0.1207-0.1206-0.1206-0.0624v-6.5948zm9.7136-7.4639c0.0485,0.2214,0.0745,0.4558,0.0745,0.7027,0,0.2465-0.026,0.4808-0.0745,0.702-0.0312,0.1421-0.0717,0.2787-0.1207,0.4097-0.0358,0.0956-0.0761,0.1881-0.1206,0.2774-0.0373,0.0749-0.0776,0.1476-0.1206,0.2179-0.0381,0.0622-0.0785,0.1226-0.1207,0.1812-0.0386,0.0534-0.0788,0.1052-0.1206,0.1555-0.0389,0.0468-0.079,0.0922-0.1206,0.1363-0.0391,0.0414-0.0793,0.0815-0.1206,0.1204-0.0393,0.037-0.0795,0.0729-0.1207,0.1076-0.0394,0.0332-0.0796,0.0653-0.1206,0.0964-0.0395,0.03-0.0797,0.0589-0.1206,0.0869-0.0396,0.027-0.0799,0.053-0.1207,0.0781-0.0397,0.0244-0.0799,0.0479-0.1206,0.0704-0.0397,0.022-0.0799,0.0432-0.1206,0.0634-0.0398,0.0198-0.0801,0.0387-0.1207,0.0568-0.0398,0.0177-0.08,0.0345-0.1206,0.0505-0.0399,0.0157-0.0801,0.0306-0.1206,0.0447-0.0399,0.0139-0.0801,0.027-0.1206,0.0392-0.04,0.0121-0.0802,0.0235-0.1207,0.034-0.0399,0.0104-0.0801,0.02-0.1206,0.0288-0.0399,0.0088-0.0802,0.0166-0.1206,0.0238l-0.0293,0.0053c-0.0235,0.0041-0.0547,0.0087-0.0914,0.0133-0.0356,0.0045-0.0765,0.0092-0.1206,0.0136-0.0382,0.0039-0.0788,0.0077-0.1206,0.0112-0.0395,0.0033-0.0801,0.0062-0.1207,0.0088-0.0405,0.0026-0.0811,0.0048-0.1206,0.0064-0.0418,0.0017-0.0824,0.0028-0.1206,0.003l-0.0191,0.0001h-0.1015-0.1207-0.1206-0.1206-0.1207-0.1206-0.1206-0.1206-0.1207-0.1206-0.1206-0.1207-0.1206-0.1206-0.1207-0.1206-0.1206-0.1206-0.1207-0.1206-0.1206-0.1207-0.1206-0.1206-0.1207-0.1206-0.1206-0.1206-0.1207-0.1206-0.1206-0.1207-0.1206-0.1206-0.1206-0.1207-0.1206-0.1206-0.1207-0.1206-0.1206-0.1207-0.1206-0.1206-0.1206-0.1207-0.1206-0.1206-0.1207-0.1206-0.1206-0.1207-0.1206-0.1206-0.0632v-6.0857h0.0632,0.1206,0.1206,0.1207,0.1206,0.1206,0.1207,0.1206,0.1206,0.1207,0.1206,0.1206,0.1206,0.1207,0.1206,0.1206,0.1207,0.1206,0.1206,0.1207,0.1206,0.1206,0.1206,0.1207,0.1206,0.1206,0.1207,0.1206,0.1206,0.1206,0.1207,0.1206,0.1206,0.1207,0.1206,0.1206,0.1207,0.1206,0.1206,0.1206,0.1207,0.1206,0.1206,0.1207,0.1206,0.1206,0.1207,0.1206,0.1206,0.1206,0.1207,0.1206,0.1206,0.1207,0.1206,0.0508l0.0698,0.0023c0.0395,0.0016,0.0801,0.004,0.1206,0.0066,0.0406,0.0026,0.0812,0.0056,0.1207,0.0088,0.0418,0.0034,0.0824,0.0072,0.1206,0.0109,0.0441,0.0043,0.085,0.0086,0.1206,0.0127,0.0367,0.0042,0.0679,0.0082,0.0914,0.0115l0.0293,0.0053c0.0404,0.0073,0.0807,0.0154,0.1206,0.0243,0.0405,0.0089,0.0807,0.0186,0.1206,0.0291,0.0405,0.0107,0.0807,0.022,0.1207,0.0342,0.0405,0.0124,0.0807,0.0256,0.1206,0.0395,0.0405,0.0142,0.0807,0.0292,0.1206,0.045,0.0406,0.0161,0.0808,0.0331,0.1206,0.0508,0.0406,0.0182,0.0809,0.0371,0.1207,0.0569,0.0407,0.0203,0.0809,0.0414,0.1206,0.0634,0.0407,0.0226,0.0809,0.0462,0.1206,0.0706,0.0408,0.0251,0.0811,0.0511,0.1207,0.0782,0.0409,0.0279,0.0811,0.0571,0.1206,0.0871,0.041,0.0311,0.0812,0.0632,0.1206,0.0964,0.0412,0.0348,0.0814,0.0707,0.1207,0.1077,0.0413,0.0389,0.0815,0.079,0.1206,0.1204,0.0416,0.044,0.0817,0.0895,0.1206,0.1363,0.0418,0.0503,0.082,0.1022,0.1206,0.1556,0.0422,0.0586,0.0826,0.1189,0.1207,0.1812,0.043,0.0703,0.0833,0.143,0.1206,0.2179,0.0445,0.0893,0.0848,0.182,0.1206,0.2776,0.049,0.131,0.0895,0.2677,0.1207,0.41zm14.96-31.557,0.0495,0-0.0001,62.502c0,0.3734-0.0173,0.7428-0.0494,1.1079-0.0282,0.3213-0.0686,0.6391-0.1207,0.953-0.035,0.2109-0.0752,0.4199-0.1206,0.6271-0.0369,0.1685-0.0771,0.3359-0.1207,0.5018-0.0377,0.1432-0.078,0.2853-0.1206,0.4264-0.0385,0.1276-0.0783,0.2546-0.1207,0.3805-0.0385,0.1141-0.079,0.2273-0.1206,0.34-0.0388,0.1049-0.0792,0.2091-0.1207,0.3127-0.039,0.0973-0.0792,0.1939-0.1206,0.29-0.0392,0.091-0.0795,0.1815-0.1207,0.2714-0.0393,0.0856-0.0795,0.1708-0.1206,0.2553-0.0395,0.081-0.0796,0.1617-0.1207,0.2417-0.0394,0.0767-0.0797,0.1531-0.1206,0.2288-0.0394,0.0729-0.0799,0.145-0.1207,0.217-0.0395,0.0697-0.0798,0.1389-0.1206,0.2077-0.0397,0.067-0.0799,0.1336-0.1207,0.1998-0.0398,0.0644-0.0798,0.1287-0.1207,0.1924-0.0396,0.0616-0.0801,0.1227-0.1207,0.1835-0.0396,0.0593-0.08,0.1179-0.1206,0.1765-0.0398,0.0575-0.08,0.1148-0.1207,0.1716-0.0398,0.0554-0.0799,0.1106-0.1206,0.1654-0.0397,0.0534-0.0802,0.1061-0.1207,0.1588-0.0399,0.0519-0.08,0.1037-0.1206,0.1549-0.0399,0.0503-0.08,0.1002-0.1207,0.1498-0.0398,0.0485-0.0802,0.0966-0.1206,0.1445-0.0401,0.0474-0.0799,0.095-0.1207,0.1418-0.0398,0.0457-0.0802,0.0908-0.1206,0.1359-0.0399,0.0446-0.0802,0.0889-0.1207,0.1329-0.04,0.0434-0.08,0.0867-0.1206,0.1295-0.0398,0.042-0.0803,0.0833-0.1207,0.1248-0.0401,0.0412-0.08,0.0826-0.1207,0.1232-0.0398,0.0397-0.0803,0.0786-0.1206,0.1178-0.0401,0.0389-0.0801,0.0779-0.1207,0.1163-0.0399,0.0377-0.0802,0.075-0.1206,0.1122-0.04,0.0369-0.0803,0.0736-0.1207,0.1099-0.04,0.0359-0.0801,0.0716-0.1206,0.107-0.04,0.035-0.0803,0.0696-0.1207,0.1041-0.0401,0.0342-0.0801,0.0683-0.1206,0.102-0.0399,0.0332-0.0803,0.0659-0.1207,0.0986-0.0401,0.0325-0.0801,0.065-0.1206,0.0971-0.0399,0.0316-0.0804,0.0625-0.1207,0.0936-0.0401,0.0309-0.0801,0.0619-0.1206,0.0924-0.0399,0.03-0.0804,0.0594-0.1207,0.089-0.0402,0.0294-0.0802,0.0591-0.1207,0.0881-0.0399,0.0286-0.0803,0.0564-0.1206,0.0845-0.0402,0.028-0.0802,0.0562-0.1207,0.0837-0.04,0.0272-0.0803,0.0537-0.1206,0.0805-0.0401,0.0266-0.0802,0.0533-0.1207,0.0795-0.04,0.0259-0.0803,0.0513-0.1206,0.0767-0.0401,0.0253-0.0803,0.0506-0.1207,0.0754-0.04,0.0246-0.0802,0.0489-0.1206,0.0731l-0.1207,0.0714c-0.0401,0.0234-0.0802,0.0468-0.1206,0.0698-0.04,0.0228-0.0804,0.0451-0.1207,0.0675-0.0402,0.0223-0.0802,0.0448-0.1206,0.0666-0.04,0.0216-0.0804,0.0425-0.1207,0.0637s-0.0802,0.0429-0.1207,0.0637c-0.0399,0.0205-0.0804,0.04-0.1206,0.0601s-0.0802,0.0403-0.1207,0.0599c-0.04,0.0194-0.0804,0.0384-0.1206,0.0574l-0.1207,0.0564-0.1206,0.0547c-0.0401,0.0179-0.0804,0.0353-0.1207,0.0528-0.0402,0.0174-0.0802,0.0353-0.1206,0.0523-0.04,0.0169-0.0804,0.0328-0.1207,0.0493-0.0402,0.0164-0.0802,0.0333-0.1206,0.0493-0.0401,0.0159-0.0804,0.031-0.1207,0.0465-0.0401,0.0154-0.0802,0.0308-0.1206,0.0458l-0.1207,0.0445c-0.0401,0.0145-0.0805,0.0285-0.1207,0.0425-0.0402,0.0141-0.0801,0.0287-0.1206,0.0424-0.04,0.0135-0.0805,0.0261-0.1207,0.0392l-0.1206,0.0391c-0.0401,0.0127-0.0804,0.0249-0.1207,0.0372l-0.1206,0.0359c-0.0402,0.0118-0.0803,0.0239-0.1207,0.0353-0.04,0.0113-0.0804,0.0218-0.1206,0.0327s-0.0803,0.0221-0.1207,0.0326l-0.1206,0.0304-0.1207,0.0295-0.1206,0.0287c-0.0401,0.0092-0.0804,0.0175-0.1207,0.0263-0.0402,0.0088-0.0803,0.0179-0.1207,0.0263l-0.1206,0.0241-0.1207,0.0231c-0.0402,0.0075-0.0803,0.0156-0.1206,0.0227-0.0401,0.0071-0.0805,0.0133-0.1207,0.02l-0.1206,0.02-0.1207,0.0181-0.1206,0.0169c-0.0403,0.0055-0.0803,0.0117-0.1207,0.0169-0.0401,0.0051-0.0805,0.0091-0.1206,0.0138-0.0402,0.0047-0.0804,0.0095-0.1207,0.0138-0.0402,0.0043-0.0803,0.0087-0.1206,0.0126-0.0401,0.0039-0.0805,0.0072-0.1207,0.0107-0.0403,0.0035-0.0804,0.0075-0.1207,0.0107-0.0401,0.0031-0.0804,0.0056-0.1206,0.0084l-0.1207,0.0076c-0.0402,0.0024-0.0803,0.0053-0.1206,0.0073-0.0401,0.002-0.0805,0.003-0.1207,0.0046l-0.1206,0.0046-0.1207,0.0031c-0.0401,0.0009-0.0804,0.001-0.1206,0.0016l-0.1207,0.0015-0.0249,0.0003h-0.0957-0.1207-0.1206-0.1207-0.1207-0.1206-0.1207-0.1206-0.1207-0.1206-0.1207-0.1206-0.1207-0.1206-0.1207-0.1207-0.1206-0.1207-0.1206-0.1207-0.1206-0.1207-0.1206-0.1207-0.1206-0.1207-0.1206-0.1207-0.1207-0.1206-0.1207-0.1206-0.1207-0.1206-0.1207-0.1206-0.1207-0.1206-0.1207-0.1206-0.1207-0.1207-0.1206-0.1207-0.1206-0.1207-0.1206-0.1207-0.1206-0.1207-0.1206-0.1207-0.1206-0.1207-0.1207-0.1206-0.1207-0.1206-0.1207-0.1206-0.1207-0.1206-0.1207-0.1206-0.1207-0.1206-0.1207-0.1207-0.1206-0.1207-0.1206-0.1207-0.1206-0.1207-0.1206-0.1207-0.1206-0.1207-0.1206-0.1207-0.1207-0.1206-0.1207-0.1206-0.1207-0.1206-0.1207-0.1206-0.1207-0.1206-0.1207-0.1206-0.1207-0.1207-0.1206-0.1207-0.1206-0.1207-0.1206-0.1207-0.1206-0.1207-0.1206-0.1207-0.1206-0.1207-0.1207-0.1206-0.1207-0.1206-0.1207-0.1206-0.1207-0.1206-0.1207-0.1206-0.1207-0.1206-0.1207-0.1207-0.1206-0.1207-0.1206-0.1207-0.1206-0.1207-0.1206-0.1207-0.1206-0.1207-0.1206-0.1207-0.1207-0.1206-0.1207-0.1206-0.1207-0.1206-0.1207-0.1206-0.1207-0.1206-0.1207-0.1206-0.1207-0.1207-0.1206-0.1207-0.1206-0.1207-0.2603v-25.484h0.2603,0.1207,0.1206,0.1207,0.1206,0.1207,0.1207,0.1206,0.1207,0.1206,0.1207,0.1206,0.1207,0.1206,0.1207,0.1206,0.1207,0.1206,0.1207,0.1207,0.1206,0.1207,0.1206,0.1207,0.1206,0.1207,0.1206,0.1207,0.1206,0.1207,0.1206,0.1207,0.1207,0.1206,0.1207,0.1206,0.1207,0.1206,0.1207,0.1206,0.1207,0.1206,0.1207,0.1206,0.1207,0.1207,0.1206,0.1207,0.1206,0.1207,0.1206,0.1207,0.1206,0.1207,0.1206,0.1207,0.1206,0.1207,0.1207,0.1206,0.1207,0.1206,0.1207,0.1206,0.1207,0.1206,0.1207,0.1206,0.1207,0.1206,0.1207,0.1207,0.1206,0.1207,0.1206,0.1207,0.1206,0.1207,0.1206,0.1207,0.1206,0.1207,0.1206,0.1207,0.1207,0.1206,0.1207,0.1206,0.1207,0.1206,0.1207,0.1206,0.1207,0.1206,0.1207,0.1206,0.1207,0.1207,0.1206,0.1207,0.1206,0.1207,0.1206,0.1207,0.1206,0.1207,0.1206,0.1207,0.1206,0.1207,0.1207,0.1206,0.1207,0.1206,0.1207,0.1206,0.1207,0.1206,0.1207,0.1206,0.1207,0.1206,0.1207,0.1207,0.1206,0.1207,0.1206,0.1207,0.1206,0.1207,0.1206,0.1207,0.1206,0.1207,0.1206,0.1207,0.1207,0.1206,0.1207,0.1206,0.1207,0.1206,0.1207,0.1206,0.1207,0.1206,0.1207,0.1207,0.1206,0.1207,0.1206,0.1207,0.1206,0.1207,0.1206,0.1207,0.1206,0.1207,0.1206,0.064l0.0567-0.0005,0.1207-0.001,0.1206-0.0025c0.0403-0.001,0.0806-0.0016,0.1207-0.003,0.0404-0.0014,0.0804-0.0033,0.1206-0.0051l0.1207-0.0056,0.1206-0.0073,0.1207-0.0083,0.1206-0.0094,0.1207-0.0111c0.0402-0.0038,0.0806-0.0075,0.1206-0.0117,0.0404-0.0042,0.0805-0.009,0.1207-0.0137l0.1206-0.0147c0.0404-0.0052,0.0806-0.0102,0.1207-0.0158,0.0404-0.0056,0.0805-0.0118,0.1207-0.0178,0.0403-0.0061,0.0806-0.0121,0.1206-0.0186l0.1207-0.0203,0.1206-0.0217c0.0403-0.0075,0.0807-0.0148,0.1207-0.0227,0.0404-0.008,0.0805-0.0166,0.1206-0.025l0.1207-0.0261c0.0403-0.009,0.0806-0.018,0.1206-0.0274,0.0405-0.0095,0.0806-0.0196,0.1207-0.0296,0.0403-0.01,0.0806-0.0202,0.1206-0.0307,0.0403-0.0106,0.0807-0.0213,0.1207-0.0324,0.0404-0.0111,0.0805-0.0227,0.1206-0.0344,0.0404-0.0117,0.0807-0.0236,0.1207-0.0358l0.1207-0.0378c0.0405-0.0129,0.0805-0.0263,0.1206-0.0398,0.0404-0.0136,0.0807-0.0272,0.1207-0.0413,0.0404-0.0142,0.0807-0.0284,0.1206-0.0431,0.0406-0.0149,0.0806-0.0305,0.1207-0.0459,0.0404-0.0156,0.0806-0.0314,0.1206-0.0475,0.0404-0.0163,0.0808-0.0325,0.1207-0.0493,0.0405-0.017,0.0806-0.0344,0.1206-0.052,0.0405-0.0178,0.0807-0.036,0.1207-0.0544,0.0404-0.0186,0.0807-0.0373,0.1206-0.0564,0.0404-0.0193,0.0808-0.0388,0.1207-0.0587,0.0406-0.0203,0.0806-0.0409,0.1206-0.0618,0.0405-0.0211,0.0807-0.0428,0.1207-0.0646,0.0406-0.0221,0.0808-0.0444,0.1207-0.0671,0.0405-0.023,0.0808-0.0463,0.1206-0.07,0.0405-0.024,0.0809-0.0482,0.1207-0.0729,0.0406-0.0253,0.0807-0.0509,0.1206-0.0768,0.0407-0.0264,0.0808-0.0532,0.1207-0.0803,0.0406-0.0275,0.0808-0.0555,0.1206-0.0838,0.0407-0.0289,0.0809-0.0581,0.1207-0.0877,0.0407-0.0302,0.0809-0.0608,0.1206-0.0918,0.0407-0.0318,0.081-0.0638,0.1207-0.0963,0.0407-0.0333,0.0809-0.067,0.1206-0.1011,0.0408-0.035,0.081-0.0706,0.1207-0.1065,0.0408-0.0369,0.081-0.0744,0.1206-0.1122,0.0409-0.039,0.0811-0.0785,0.1207-0.1185,0.041-0.0414,0.0811-0.0832,0.1207-0.1256,0.0409-0.0438,0.0811-0.0883,0.1206-0.1332,0.041-0.0467,0.0813-0.094,0.1207-0.1419,0.0411-0.0499,0.0813-0.1004,0.1206-0.1515,0.0411-0.0536,0.0816-0.1075,0.1207-0.1624,0.0415-0.0583,0.0814-0.1176,0.1206-0.1774,0.0415-0.0634,0.0818-0.1276,0.1207-0.1926,0.0418-0.0699,0.082-0.1408,0.1206-0.2126,0.042-0.0781,0.0825-0.1571,0.1207-0.2374,0.0427-0.0897,0.0828-0.1809,0.1206-0.2733,0.0434-0.106,0.0838-0.2134,0.1207-0.3228,0.0454-0.1348,0.0854-0.2723,0.1206-0.4122,0.0515-0.2045,0.0919-0.4144,0.1207-0.6294,0.035-0.2609,0.0534-0.529,0.0534-0.8045,0-0.2683-0.0182-0.5289-0.0534-0.782-0.0289-0.2079-0.0693-0.4106-0.1207-0.6079-0.0351-0.1345-0.0754-0.2664-0.1206-0.3958-0.037-0.1061-0.0772-0.2107-0.1207-0.3133-0.0377-0.0889-0.078-0.1765-0.1206-0.2627-0.0383-0.0776-0.0786-0.1541-0.1207-0.2295-0.0387-0.0694-0.0788-0.138-0.1206-0.2055-0.0388-0.0627-0.0792-0.1245-0.1207-0.1855-0.0391-0.0576-0.0792-0.1148-0.1206-0.1709-0.0391-0.053-0.0795-0.1051-0.1207-0.1567-0.0393-0.0494-0.0795-0.0981-0.1206-0.1463-0.0395-0.0462-0.0796-0.092-0.1207-0.1371-0.0395-0.0434-0.0796-0.0863-0.1206-0.1286-0.0395-0.0408-0.0798-0.081-0.1207-0.1208-0.0396-0.0386-0.0799-0.0767-0.1207-0.1143-0.0396-0.0365-0.0799-0.0725-0.1206-0.1081-0.0397-0.0347-0.0799-0.069-0.1207-0.1028-0.0397-0.033-0.0799-0.0656-0.1206-0.0978-0.0398-0.0314-0.08-0.0625-0.1207-0.0931-0.0398-0.03-0.08-0.0595-0.1206-0.0888-0.0398-0.0286-0.0801-0.0569-0.1207-0.0848-0.0398-0.0273-0.08-0.0544-0.1206-0.0811-0.0399-0.0262-0.0801-0.0521-0.1207-0.0776-0.0399-0.025-0.08-0.0498-0.1206-0.0742-0.0398-0.0239-0.0801-0.0475-0.1207-0.0708-0.0399-0.0229-0.0801-0.0455-0.1206-0.0678-0.0399-0.022-0.0801-0.0436-0.1207-0.0649-0.0399-0.0211-0.0802-0.0419-0.1207-0.0625-0.0399-0.0202-0.0801-0.0403-0.1206-0.06-0.04-0.0194-0.0801-0.0387-0.1207-0.0576-0.0399-0.0186-0.0802-0.0367-0.1206-0.0547-0.0399-0.0178-0.0802-0.0353-0.1207-0.0526-0.04-0.0171-0.0802-0.0339-0.1206-0.0505-0.0401-0.0164-0.0801-0.0328-0.1207-0.0487-0.04-0.0157-0.0802-0.0312-0.1206-0.0464-0.04-0.015-0.0803-0.0295-0.1207-0.0441-0.04-0.0144-0.0802-0.0284-0.1206-0.0424-0.0401-0.0138-0.0802-0.0275-0.1207-0.0409-0.04-0.0132-0.0802-0.0261-0.1206-0.0388-0.04-0.0126-0.0804-0.0248-0.1207-0.0369l-0.1207-0.0354c-0.0401-0.0115-0.0802-0.023-0.1206-0.034-0.04-0.0109-0.0804-0.0214-0.1207-0.0318-0.04-0.0104-0.0802-0.0204-0.1206-0.0304-0.0401-0.0099-0.0803-0.0197-0.1207-0.0291-0.04-0.0094-0.0803-0.0185-0.1206-0.0274-0.04-0.0089-0.0803-0.0174-0.1207-0.0258-0.0401-0.0084-0.0802-0.0168-0.1206-0.0247l-7.49-0.022-0.121-0.021c-0.04-0.007-0.08-0.014-0.121-0.021l-0.1206-0.019c-0.0401-0.0061-0.0804-0.0118-0.1207-0.0174l-0.1207-0.0165-0.1206-0.0152-0.1207-0.0136-0.1206-0.0127-0.1207-0.0112-0.1206-0.0101-0.1114-0.0086-0.0001-0.1446,0.1115-0.0173,0.1206-0.0199c0.0404-0.0069,0.0807-0.0138,0.1207-0.0211l0.1206-0.0232c0.0405-0.008,0.0807-0.0163,0.1207-0.0248l0.1206-0.0263c0.0404-0.0091,0.0808-0.0183,0.1207-0.0279,0.0405-0.0098,0.0806-0.02,0.1207-0.0302,0.0405-0.0103,0.0806-0.0211,0.1206-0.0319,0.0404-0.011,0.0807-0.0222,0.1207-0.0337,0.0404-0.0116,0.0807-0.0233,0.1206-0.0354,0.0404-0.0122,0.0808-0.0248,0.1207-0.0376,0.0405-0.013,0.0806-0.0264,0.1206-0.0399,0.0406-0.0137,0.0807-0.0278,0.1207-0.042,0.0405-0.0144,0.0807-0.029,0.1206-0.044,0.0405-0.0152,0.0808-0.0306,0.1207-0.0463,0.0405-0.0159,0.0807-0.0322,0.1206-0.0487,0.0406-0.0168,0.0808-0.0338,0.1207-0.0512,0.0406-0.0177,0.0807-0.0357,0.1206-0.054,0.0406-0.0185,0.0808-0.0375,0.1207-0.0567,0.0406-0.0195,0.0808-0.0394,0.1207-0.0595,0.0405-0.0205,0.0808-0.0413,0.1206-0.0624,0.0406-0.0215,0.0809-0.0434,0.1207-0.0655,0.0406-0.0226,0.0808-0.0455,0.1206-0.0687,0.0406-0.0237,0.0809-0.0478,0.1207-0.0722,0.0407-0.0249,0.0808-0.0501,0.1206-0.0757,0.0407-0.0261,0.0809-0.0528,0.1207-0.0797,0.0407-0.0275,0.0809-0.0554,0.1206-0.0837,0.0408-0.029,0.081-0.0583,0.1207-0.088,0.0408-0.0305,0.081-0.0613,0.1206-0.0926,0.0408-0.0322,0.0811-0.0646,0.1207-0.0976,0.0408-0.034,0.081-0.0685,0.1206-0.1033,0.041-0.0361,0.0811-0.0726,0.1207-0.1095,0.0409-0.0381,0.0812-0.0767,0.1207-0.1157,0.0409-0.0404,0.0812-0.0812,0.1206-0.1225,0.0411-0.0432,0.0813-0.0868,0.1207-0.131,0.0411-0.046,0.0813-0.0927,0.1206-0.1398,0.0412-0.0493,0.0815-0.0993,0.1207-0.1498,0.0413-0.0533,0.0815-0.1073,0.1206-0.1619,0.0415-0.0579,0.0817-0.1165,0.1207-0.1757,0.0416-0.0632,0.0819-0.127,0.1206-0.1917,0.0419-0.0701,0.0822-0.141,0.1207-0.2127,0.0423-0.0789,0.0825-0.1587,0.1206-0.2394,0.0429-0.0908,0.0831-0.1829,0.1207-0.2759,0.0438-0.1084,0.084-0.2183,0.1206-0.3296,0.046-0.1399,0.0863-0.2821,0.1207-0.4261,0.0557-0.2336,0.0959-0.4721,0.1207-0.7147,0.0196-0.1914,0.0298-0.3854,0.0298-0.5813,0-0.2069-0.0103-0.4086-0.0298-0.6053-0.0249-0.2514-0.0654-0.4942-0.1207-0.7286-0.0345-0.1464-0.0748-0.2895-0.1207-0.4291-0.0367-0.1117-0.0769-0.2212-0.1206-0.3286-0.0377-0.0925-0.0779-0.1834-0.1207-0.2726-0.0382-0.0796-0.0785-0.1579-0.1206-0.2349-0.0386-0.0705-0.0789-0.1399-0.1207-0.2083-0.0389-0.0635-0.079-0.1261-0.1206-0.1877-0.039-0.0577-0.0793-0.1145-0.1207-0.1705-0.0391-0.053-0.0793-0.1053-0.1206-0.1568-0.0394-0.0492-0.0794-0.0979-0.1207-0.1458-0.0393-0.0455-0.0796-0.0902-0.1206-0.1345-0.0394-0.0426-0.0797-0.0846-0.1207-0.1261-0.0395-0.04-0.0797-0.0794-0.1206-0.1183-0.0396-0.0377-0.0798-0.075-0.1207-0.1116-0.0396-0.0355-0.0799-0.0706-0.1207-0.1052-0.0397-0.0336-0.0798-0.0668-0.1206-0.0995-0.0397-0.0318-0.0799-0.0633-0.1207-0.0942-0.0397-0.0302-0.0799-0.0599-0.1206-0.0892-0.0398-0.0287-0.08-0.0569-0.1207-0.0848-0.0398-0.0272-0.0799-0.054-0.1206-0.0805-0.0398-0.026-0.0801-0.0516-0.1207-0.0768-0.0398-0.0247-0.0801-0.049-0.1206-0.073-0.0399-0.0236-0.0801-0.0468-0.1207-0.0697-0.0398-0.0225-0.08-0.0447-0.1206-0.0665-0.0399-0.0215-0.0801-0.0425-0.1207-0.0634-0.0399-0.0205-0.0801-0.0407-0.1206-0.0606-0.04-0.0196-0.0801-0.0391-0.1207-0.058-0.047-0.016-0.088-0.034-0.128-0.052s-0.08-0.035-0.121-0.052c-0.04-0.017-0.08-0.034-0.12-0.05-0.04-0.017-0.081-0.033-0.121-0.048-0.04-0.0155-0.0802-0.0309-0.1207-0.0459-0.04-0.0148-0.0801-0.0293-0.1206-0.0436-0.04-0.0141-0.0802-0.0278-0.1207-0.0414-0.04-0.0134-0.0802-0.0265-0.1206-0.0394-0.04-0.0128-0.0802-0.0254-0.1207-0.0377-0.0401-0.0122-0.0801-0.0244-0.1206-0.0361-0.04-0.0115-0.0803-0.0226-0.1207-0.0336-0.04-0.011-0.0802-0.0216-0.1206-0.0321l-0.1207-0.0307c-0.0401-0.0099-0.0802-0.0196-0.1207-0.029-0.04-0.0093-0.0802-0.0183-0.1206-0.0271l-0.117-0.026c-0.04-0.008-0.08-0.016-0.121-0.024-0.04-0.008-0.08-0.015-0.12-0.023l-0.121-0.021c-0.04-0.007-0.08-0.013-0.121-0.02l-0.1206-0.0183-0.1207-0.017-0.1206-0.016-0.1207-0.0143-0.1206-0.013-0.1207-0.0121-0.1207-0.0106-0.1206-0.0093-0.1207-0.0086-0.1206-0.0069-0.0479-0.0027-0.0728-0.0045-0.1206-0.0071-0.1207-0.0067-0.1206-0.0063-0.1207-0.0058-0.1206-0.0052-0.1207-0.0044-0.1206-0.0037-0.1207-0.0027-0.1207-0.0016-0.0665-0.0002h-0.0541-0.1207-0.1206-0.1207-0.1206-0.1207-0.1206-0.1207-0.1206-0.1207-0.1207-0.1206-0.1207-0.1206-0.1207-0.1206-0.1207-0.1206-0.1207-0.1206-0.1207-0.1206-0.1207-0.1207-0.1206-0.1207-0.1206-0.1207-0.1206-0.1207-0.1206-0.1207-0.1206-0.1207-0.1206-0.1207-0.1207-0.1206-0.1207-0.1206-0.1207-0.1206-0.1207-0.1206-0.1207-0.1206-0.1207-0.1206-0.1207-0.1207-0.1206-0.1207-0.1206-0.1207-0.1206-0.1207-0.1206-0.1207-0.1206-0.1207-0.1206-0.1207-0.1207-0.1206-0.1207-0.1206-0.1207-0.1206-0.1207-0.1206-0.1207-0.1206-0.1207-0.1206-0.1207-0.1207-0.1206-0.1207-0.1206-0.1207-0.1206-0.1207-0.1206-0.1207-0.1206-0.1207-0.1206-0.1207-0.1207-0.1206-0.1207-0.1206-0.1207-0.1206-0.1207-0.1206-0.1207-0.1206-0.1207-0.1206-0.1207-0.1207-0.1206-0.1207-0.1206-0.1207-0.1206-0.1207-0.1206-0.1207-0.1206-0.1207-0.1206-0.1207-0.1207-0.1206-0.1207-0.1206-0.1207-0.1206-0.1207-0.1206-0.1207-0.1206-0.1207-0.1206-0.1207-0.1207-0.1206-0.1207-0.1206-0.1207-0.1206-0.1207-0.1206-0.1207-0.1206-0.1207-0.1206-0.1207-0.1207-0.1206-0.1207-0.1206-0.1207-0.2603v-12.981c0-0.8733,0.0899-1.7255,0.2603-2.5483,0.0366-0.1762,0.0769-0.3509,0.1207-0.5242,0.0375-0.1483,0.0779-0.2955,0.1206-0.4416,0.0382-0.1305,0.0784-0.2601,0.1207-0.3888,0.0386-0.1176,0.0786-0.2346,0.1206-0.3506,0.0389-0.1076,0.0789-0.2146,0.1207-0.3208,0.0391-0.0992,0.0792-0.1979,0.1207-0.2958,0.0392-0.0924,0.0793-0.1844,0.1206-0.2757,0.0392-0.0867,0.0796-0.1728,0.1207-0.2584,0.0392-0.0817,0.0796-0.1628,0.1206-0.2435,0.0394-0.0776,0.0798-0.1546,0.1207-0.2313,0.0394-0.0739,0.0797-0.1473,0.1206-0.2203,0.0396-0.0708,0.0798-0.141,0.1207-0.2109,0.0397-0.0678,0.0797-0.1353,0.1206-0.2022,0.0397-0.0649,0.0799-0.1293,0.1207-0.1934,0.0395-0.0621,0.08-0.1236,0.1206-0.1849,0.0398-0.06,0.0799-0.1198,0.1207-0.1791,0.0399-0.0581,0.0797-0.1162,0.1206-0.1736,0.0397-0.0556,0.0802-0.1105,0.1207-0.1654,0.0397-0.054,0.0801-0.1076,0.1207-0.1609,0.04-0.0525,0.0798-0.1052,0.1206-0.157,0.0397-0.0504,0.0803-0.1,0.1207-0.1498,0.0398-0.0491,0.08-0.0978,0.1206-0.1462,0.04-0.0478,0.08-0.0956,0.1207-0.1428,0.0397-0.046,0.0802-0.0912,0.1206-0.1366,0.0401-0.045,0.08-0.0901,0.1207-0.1345,0.0398-0.0435,0.0802-0.0866,0.1206-0.1296,0.0399-0.0424,0.0802-0.0845,0.1207-0.1264,0.04-0.0413,0.08-0.0826,0.1206-0.1234,0.0399-0.0401,0.0803-0.0796,0.1207-0.1191,0.0401-0.0393,0.0799-0.079,0.1206-0.1177,0.0398-0.0379,0.0804-0.0749,0.1207-0.1123,0.0401-0.0372,0.0801-0.0745,0.1207-0.1112,0.0399-0.0361,0.0803-0.0715,0.1206-0.107,0.0401-0.0353,0.0802-0.0706,0.1207-0.1054,0.04-0.0343,0.0802-0.0681,0.1206-0.1019,0.0401-0.0335,0.0802-0.0669,0.1207-0.0999,0.04-0.0327,0.0802-0.065,0.1206-0.0971l0.1207-0.0949,0.1206-0.0924c0.0401-0.0303,0.0803-0.0604,0.1207-0.0902,0.04-0.0295,0.0802-0.0589,0.1206-0.088l0.1207-0.0857c0.04-0.0281,0.0802-0.056,0.1206-0.0836l0.162-0.0808,0.121-0.0795c0.04-0.0261,0.08-0.0521,0.121-0.0777l0.12-0.0754c0.041-0.0249,0.081-0.0498,0.121-0.0742,0.04-0.0242,0.08-0.0477,0.121-0.0714,0.04-0.0237,0.08-0.0476,0.12-0.0708,0.04-0.0229,0.081-0.045,0.121-0.0675s0.08-0.0454,0.121-0.0674c0.04-0.0217,0.0805-0.0427,0.1207-0.064s0.0802-0.0427,0.1206-0.0636c0.04-0.0207,0.0804-0.0408,0.1207-0.061,0.0401-0.0201,0.0803-0.0403,0.1206-0.06l0.119-0.0583c0.04-0.0191,0.08-0.0377,0.121-0.0564,0.04-0.0186,0.08-0.0375,0.12-0.0557,0.04-0.018,0.0805-0.0352,0.1207-0.0528s0.0802-0.0355,0.1206-0.0527c0.04-0.017,0.0805-0.0332,0.1207-0.0498,0.0401-0.0165,0.0802-0.0332,0.1206-0.0493l0.119-0.0475,0.121-0.0459c0.0403-0.0152,0.0803-0.0306,0.1207-0.0453,0.04-0.0146,0.0804-0.0283,0.1206-0.0425,0.0403-0.0142,0.0803-0.0287,0.1207-0.0425,0.04-0.0137,0.0804-0.0266,0.1206-0.0399l0.1207-0.0391c0.0402-0.0128,0.0803-0.0257,0.1207-0.0381,0.04-0.0123,0.0804-0.0239,0.1206-0.0358,0.0402-0.012,0.0803-0.0244,0.1207-0.0359,0.04-0.0114,0.0804-0.022,0.1206-0.033s0.0803-0.0221,0.1207-0.0327l0.117-0.0312c0.0401-0.0101,0.0804-0.0197,0.1207-0.0294,0.0402-0.0097,0.0802-0.0201,0.1206-0.0294,0.04-0.0092,0.0805-0.0176,0.1207-0.0265l0.1206-0.0263,0.1207-0.0249c0.04-0.008,0.0804-0.0155,0.1206-0.0231,0.0403-0.0077,0.0803-0.0159,0.1207-0.0232,0.0401-0.0073,0.0805-0.0135,0.1207-0.0203l0.1206-0.02c0.0402-0.0064,0.0804-0.013,0.1207-0.019,0.0401-0.006,0.0804-0.0113,0.1206-0.0169,0.0403-0.0056,0.0803-0.0117,0.1207-0.0169,0.0401-0.0052,0.0804-0.0098,0.1206-0.0146l0.1207-0.0138c0.0402-0.0044,0.0803-0.0093,0.1206-0.0133,0.0401-0.004,0.0805-0.0071,0.1207-0.0107l0.115-0.0107,0.121-0.0091c0.04-0.0029,0.08-0.0052,0.121-0.0077,0.04-0.0024,0.08-0.0055,0.12-0.0076,0.041-0.0021,0.081-0.0033,0.121-0.005l0.1206-0.0045c0.0403-0.0013,0.0804-0.003,0.1207-0.0039,0.0401-0.0009,0.0804-0.001,0.1206-0.0016s0.0804-0.0013,0.1207-0.0015l0.0303-0.0004h0.0903,0.1207,0.1206,0.1207,0.1206,0.1207,0.1206,0.1207,0.1207,0.1206,0.1207,0.1206,0.1207,0.1206,0.1207,0.1206,0.1207,0.1206,0.1207,0.1206,0.1207,0.1207,0.1206,0.1207,0.1206,0.1207,0.1206,0.1207,0.1206,0.1207,0.1206,0.1207,0.1206,0.1207,0.1207,0.1206,0.1207,0.1206,0.1207,0.1206,0.1207,0.1206,0.1207,0.1206,0.1207,0.1207,0.1206,0.1207,0.1206,0.1207,0.1206,0.1207,0.1206,0.1207,0.1206,0.1207,0.1206,0.1207,0.1207,0.1206,0.1207,0.1206,0.1207,0.1206,0.1207,0.1206,0.1207,0.1206,0.1207,0.1206,0.1207,0.1207,0.1206,0.1207,0.1206,0.1207,0.1206,0.1207,0.1206,0.1207,0.1206,0.1207,0.1206,0.1207,0.1207,0.1206,0.1207,0.1206,0.1207,0.1206,0.1207,0.1206,0.1207,0.1206,0.1207,0.1206,0.1207,0.1207,0.1206,0.1207,0.1206,0.1207,0.1206,0.1207,0.1206,0.1207,0.1206,0.1207,0.1206,0.1207,0.1207,0.1206,0.1207,0.1206,0.1207,0.1206,0.1207,0.1206,0.1207,0.1206,0.1207,0.1206,0.1207,0.1207,0.1206,0.1207,0.1206,0.1207,0.1206,0.1207,0.1206,0.1207,0.1206,0.1207,0.1206,0.1207,0.1207,0.1207,0.1206,0.1207,0.1206,0.1207,0.1206,0.1207,0.1206,0.1207,0.1206,0.1207,0.1206,0.1207,0.1206,0.1207v-0.0001z"/>
        <path fill="url(#id2)" class="fil2" d="M6.5081,49.331c-0.0863-0.041-0.1725-0.083-0.2587-0.124v-30.872c0-0.8708,0.0892-1.7208,0.2587-2.5414,0.0364-0.177,0.0768-0.351,0.1205-0.525,0.0374-0.148,0.0777-0.295,0.1204-0.442,0.0381-0.13,0.0783-0.26,0.1204-0.388,0.0386-0.118,0.0785-0.235,0.1205-0.351,0.0389-0.108,0.0787-0.215,0.1204-0.321,0.0389-0.099,0.0791-0.198,0.1205-0.296,0.0391-0.092,0.0792-0.184,0.1204-0.275,0.0392-0.087,0.0794-0.173,0.1204-0.259,0.0392-0.081,0.0796-0.163,0.1205-0.243,0.0393-0.078,0.0795-0.155,0.1204-0.232,0.0394-0.0739,0.0796-0.1473,0.1204-0.2203,0.0395-0.0707,0.0796-0.141,0.1205-0.2108,0.0396-0.0678,0.0795-0.1354,0.1204-0.2024,0.0396-0.0648,0.0798-0.1291,0.1205-0.1931,0.0394-0.062,0.0799-0.1236,0.1204-0.1849,0.0397-0.06,0.0797-0.1198,0.1204-0.1791,0.04-0.0582,0.0796-0.1163,0.1205-0.1738,0.0395-0.0555,0.08-0.1103,0.1204-0.1652,0.0398-0.054,0.0799-0.1076,0.1205-0.1609,0.0399-0.0524,0.0797-0.1052,0.1204-0.157,0.0396-0.05,0.0801-0.1,0.1204-0.15,0.0398-0.049,0.0799-0.098,0.1205-0.146,0.0399-0.048,0.0798-0.095,0.1204-0.143,0.0397-0.046,0.0801-0.091,0.1205-0.136,0.0399-0.0455,0.0798-0.0905,0.1204-0.1349,0.0397-0.0435,0.0801-0.0864,0.1204-0.1293,0.0399-0.0425,0.08-0.0846,0.1205-0.1265,0.0399-0.0413,0.0799-0.0826,0.1204-0.1234,0.0398-0.0401,0.0802-0.0796,0.1206-0.1191,0.04-0.0393,0.08-0.0789,0.12-0.1176,0.04-0.0379,0.081-0.0749,0.121-0.1123,0.0401-0.0373,0.0799-0.0747,0.1205-0.1114,0.0398-0.036,0.0802-0.0713,0.1204-0.1068,0.0401-0.0353,0.08-0.0707,0.1205-0.1055,0.0399-0.0343,0.0801-0.068,0.1204-0.1018,0.0399-0.0335,0.08-0.067,0.1204-0.1,0.0399-0.0326,0.0802-0.0649,0.1205-0.0971,0.04-0.0319,0.08-0.0635,0.1204-0.0949,0.0399-0.0311,0.0802-0.0618,0.1205-0.0924,0.04-0.0303,0.0801-0.0605,0.1204-0.0903l0.1204-0.0878c0.04-0.0289,0.0801-0.0576,0.1205-0.086,0.0399-0.0281,0.0801-0.0559,0.1204-0.0835,0.04-0.0275,0.0801-0.0548,0.1204-0.0818,0.04-0.0267,0.0802-0.053,0.1205-0.0793,0.04-0.0261,0.08-0.0524,0.1204-0.0781,0.0399-0.0254,0.0802-0.0502,0.1205-0.0752,0.0401-0.0249,0.08-0.0501,0.1204-0.0745,0.0398-0.0241,0.0802-0.0475,0.1204-0.0712s0.08-0.0478,0.1205-0.0711c0.0398-0.0229,0.0803-0.0448,0.1204-0.0673,0.0402-0.0225,0.0801-0.0453,0.1205-0.0674,0.0399-0.0218,0.0802-0.0428,0.1204-0.0641,0.0401-0.0213,0.0801-0.0427,0.1204-0.0636,0.04-0.0207,0.0802-0.041,0.1205-0.0613l0.1204-0.0598c0.0401-0.0197,0.0802-0.0394,0.1205-0.0586,0.04-0.0191,0.0802-0.0376,0.1204-0.0563s0.08-0.0378,0.1204-0.056c0.0399-0.0181,0.0803-0.0351,0.1205-0.0527,0.0401-0.0176,0.0801-0.0355,0.1204-0.0527,0.04-0.017,0.0803-0.0334,0.1205-0.05l0.1204-0.0492,0.1204-0.0478,0.1205-0.0458c0.0402-0.0152,0.08-0.0309,0.1204-0.0457,0.0399-0.0146,0.0804-0.0282,0.1205-0.0424s0.0801-0.0286,0.1204-0.0424l0.1204-0.0403,0.1205-0.0391c0.0401-0.0128,0.0801-0.0259,0.1204-0.0383,0.0399-0.0123,0.0803-0.024,0.1204-0.0359,0.0402-0.012,0.0802-0.0242,0.1205-0.0358,0.04-0.0115,0.0802-0.0222,0.1204-0.0333l0.1205-0.0327c0.0401-0.0106,0.0801-0.0214,0.1204-0.0316,0.04-0.0102,0.0803-0.0195,0.1204-0.0293s0.0802-0.02,0.1205-0.0294c0.04-0.0093,0.0803-0.018,0.1204-0.0269l0.1205-0.0262c0.0401-0.0086,0.0801-0.0173,0.1204-0.0254,0.04-0.008,0.0803-0.0154,0.1204-0.0231,0.0402-0.0077,0.0802-0.0157,0.1205-0.023,0.0401-0.0073,0.0802-0.0139,0.1204-0.0208l0.1205-0.02c0.0401-0.0064,0.0801-0.0133,0.1204-0.0194,0.04-0.0061,0.0803-0.0112,0.1204-0.0169,0.0401-0.0056,0.0802-0.0116,0.1205-0.0169l0.145-0.0151,0.121-0.0137c0.0402-0.0045,0.0801-0.0097,0.1204-0.0138,0.04-0.0041,0.0803-0.0071,0.1204-0.0108l0.121-0.0106c0.0401-0.0034,0.0802-0.0067,0.1204-0.0096,0.0401-0.0029,0.0803-0.0052,0.1205-0.0077s0.0802-0.0054,0.1204-0.0076c0.04-0.0022,0.0802-0.0037,0.1204-0.0055l0.1205-0.0046c0.0401-0.0014,0.0801-0.0035,0.1204-0.0045,0.04-0.001,0.0803-0.0009,0.1204-0.0015s0.0803-0.0013,0.1205-0.0015l0.0535-0.0007h0.0669,0.1205,0.1204,0.1204,0.1205,0.1204,0.1205,0.1204,0.1204,0.1205,0.1204,0.1205,0.1204,0.1204,0.1205,0.1204,0.1205,0.1204,0.1204,0.1205,0.1204,0.1205,0.1204,0.1204,0.1205,0.1204,0.1205,0.1204,0.1204,0.1205,0.1204,0.1205,0.1204,0.1204,0.1205,0.1204,0.1204,0.1205,0.1204,0.1205,0.1204,0.1204,0.1205,0.1204,0.1205,0.1204,0.1204,0.1205,0.1204,0.1205,0.1204,0.1204,0.1205,0.1204,0.1205,0.1204,0.1204,0.1205,0.1204,0.1204,0.1205,0.1204,0.1205,0.1204,0.1205,0.1204,0.1204,0.1205,0.1204,0.1204,0.1205,0.1204,0.1205,0.1204,0.1204,0.1205,0.1204,0.1205,0.1204,0.1204,0.1205,0.1204,0.1205,0.1204,0.1204,0.1205,0.1204,0.1204,0.1205,0.1204,0.1205,0.1204,0.1205,0.1204,0.1204,0.1205,0.1204,0.1205,0.1204,0.1204,0.1205,0.1204,0.1204,0.1205,0.1204,0.1205,0.1204,0.1205,0.1204,0.1204,0.1205,0.1204,0.1204,0.1205,0.1204,0.1205,0.1204,0.1204,0.1205,0.1204,0.1204,0.1205,0.1204,0.1205,0.1204,0.1205,0.1204,0.1204,0.1205,0.1204,0.1204,0.1205,0.1204,0.1205,0.1204,0.1204,0.1205,0.1204,0.1205,0.1204,0.1204,0.1205,0.1204,0.1205,0.1204,0.1204,0.1205,0.1204,0.1204,0.1205,0.1204,0.1205,0.1022v62.502c0,0.5437-0.0349,1.0793-0.1022,1.6047-0.0324,0.253-0.0732,0.5033-0.1205,0.7513-0.036,0.1886-0.076,0.3758-0.1204,0.5613-0.0374,0.1563-0.0774,0.3115-0.1205,0.4655-0.0379,0.1351-0.0782,0.2692-0.1204,0.4023-0.0383,0.1206-0.0786,0.2403-0.1204,0.3593-0.0387,0.1101-0.0788,0.2196-0.1205,0.3283-0.0389,0.1015-0.079,0.2023-0.1204,0.3025-0.039,0.0943-0.0792,0.1882-0.1204,0.2813-0.0392,0.0884-0.0794,0.1762-0.1205,0.2636-0.0392,0.0833-0.0794,0.166-0.1204,0.2483-0.0394,0.079-0.0795,0.1575-0.1205,0.2355-0.0394,0.0751-0.0795,0.1498-0.1204,0.224-0.0396,0.0718-0.0794,0.1433-0.1204,0.2142-0.0395,0.0684-0.0797,0.1364-0.1205,0.204-0.0394,0.0654-0.0798,0.1301-0.1204,0.1947-0.0396,0.0631-0.0798,0.1258-0.1205,0.1881-0.0398,0.0609-0.0796,0.1217-0.1204,0.1818-0.0396,0.0583-0.0799,0.1162-0.1204,0.1738-0.0396,0.0563-0.0799,0.1121-0.1205,0.1678-0.0398,0.0547-0.0798,0.1092-0.1204,0.1632-0.0397,0.0528-0.0799,0.1052-0.1205,0.1573-0.0397,0.0509-0.08,0.1013-0.1204,0.1516-0.0399,0.0497-0.0798,0.0994-0.1204,0.1484-0.0397,0.0479-0.0801,0.0952-0.1205,0.1425-0.0398,0.0466-0.0799,0.0928-0.1204,0.1388-0.04,0.0454-0.0798,0.091-0.1204,0.1358-0.0397,0.0438-0.0802,0.0868-0.1205,0.1301-0.04,0.0429-0.0798,0.0859-0.1204,0.1282-0.0398,0.0415-0.0801,0.0824-0.1205,0.1234-0.0399,0.0405-0.0799,0.0807-0.1204,0.1207-0.0399,0.0395-0.08,0.0787-0.1205,0.1177-0.0398,0.0383-0.0801,0.0761-0.1204,0.1139-0.04,0.0375-0.0799,0.0751-0.1204,0.1121-0.0398,0.0363-0.0802,0.0719-0.1205,0.1077-0.0401,0.0357-0.0798,0.0717-0.1204,0.1068-0.0397,0.0344-0.0803,0.0679-0.1204,0.1019-0.0401,0.0339-0.08,0.0681-0.1205,0.1015-0.0398,0.0328-0.0802,0.0649-0.1204,0.0971-0.0401,0.0322-0.08,0.0647-0.1205,0.0964-0.0398,0.0312-0.0802,0.0616-0.1204,0.0923-0.0401,0.0306-0.0799,0.0614-0.1204,0.0915-0.0398,0.0297-0.0803,0.0586-0.1205,0.0879-0.0401,0.0291-0.0799,0.0585-0.1204,0.0872-0.0398,0.0282-0.0802,0.0558-0.1204,0.0835-0.0402,0.0278-0.08,0.0559-0.1205,0.0832-0.0398,0.0268-0.0802,0.0529-0.1204,0.0793s-0.08,0.0533-0.1205,0.0793c-0.0398,0.0255-0.0803,0.05-0.1204,0.0751s-0.08,0.0506-0.1205,0.0752c-0.0399,0.0243-0.0803,0.0479-0.1204,0.0717s-0.08,0.0478-0.1204,0.0712c-0.04,0.0231-0.0802,0.0457-0.1205,0.0684-0.04,0.0226-0.0801,0.0452-0.1204,0.0673-0.04,0.022-0.0801,0.0438-0.1204,0.0653l-0.1205,0.0636c-0.0401,0.0209-0.0801,0.0418-0.1204,0.0623-0.04,0.0203-0.0802,0.04-0.1205,0.0599-0.0401,0.0198-0.08,0.0402-0.1204,0.0596-0.0399,0.0192-0.0803,0.0375-0.1204,0.0563-0.0402,0.0188-0.0801,0.0379-0.1205,0.0563-0.0399,0.0182-0.0803,0.0356-0.1204,0.0534l-0.1205,0.0527-0.1204,0.0511c-0.04,0.0167-0.0803,0.0329-0.1205,0.0492-0.0401,0.0163-0.0801,0.0329-0.1204,0.0488-0.0399,0.0157-0.0802,0.0304-0.1204,0.0457s-0.0801,0.0309-0.1205,0.0458c-0.04,0.0148-0.0802,0.0289-0.1204,0.0433l-0.1204,0.0424-0.1205,0.0413c-0.04,0.0134-0.0803,0.0262-0.1204,0.0391-0.0402,0.013-0.0801,0.0265-0.1205,0.0391-0.0399,0.0125-0.0803,0.024-0.1204,0.0361l-0.1204,0.0358-0.1205,0.0343c-0.04,0.0112-0.0802,0.0218-0.1204,0.0326s-0.0802,0.0222-0.1205,0.0325c-0.0399,0.0103-0.0804,0.0195-0.1204,0.0294-0.0401,0.0099-0.0802,0.0199-0.1204,0.0294l-0.1205,0.0277-0.1204,0.0263c-0.0402,0.0087-0.0801,0.018-0.1205,0.0263-0.04,0.0082-0.0803,0.0152-0.1204,0.023s-0.0802,0.0157-0.1204,0.0231l-0.1205,0.0217c-0.04,0.007-0.0802,0.0133-0.1204,0.0199s-0.0802,0.0138-0.1204,0.02c-0.04,0.0062-0.0803,0.0114-0.1205,0.0172l-0.1204,0.0169c-0.0401,0.0054-0.0802,0.0109-0.1205,0.0159-0.04,0.005-0.0803,0.0092-0.1204,0.0138-0.0402,0.0046-0.0802,0.0096-0.1205,0.0138-0.04,0.0042-0.0802,0.0078-0.1204,0.0116l-0.1204,0.0107c-0.0402,0.0034-0.0802,0.0076-0.1205,0.0106-0.04,0.003-0.0803,0.005-0.1204,0.0076l-0.1204,0.0076-0.1205,0.0064c-0.04,0.0019-0.0803,0.0031-0.1204,0.0046-0.0402,0.0015-0.0803,0.0034-0.1205,0.0046-0.04,0.0011-0.0803,0.0015-0.1204,0.0023l-0.1204,0.0015c-0.0372,0.0003-0.0743,0.0014-0.1117,0.0014h-0.0088-0.1204-0.1205-0.1204-0.1204-0.1205-0.1204-0.1205-0.1204-0.1204-0.1205-0.1204-0.1205-0.1204-0.1204-0.1205-0.1204-0.1204-0.1205-0.1204-0.1205-0.1204-0.1204-0.1205-0.1204-0.1205-0.1204-0.1204-0.1205-0.1204-0.1205-0.1204-0.1204-0.1205-0.1204-0.1205-0.1204-0.1204-0.1205-0.1204-0.1205-0.1204-0.1204-0.1205-0.1204-0.1205-0.1204-0.1204-0.1205-0.1204-0.1205-0.1204-0.1204-0.1205-0.1204-0.1204-0.1205-0.1204-0.1205-0.1204-0.1204-0.1205-0.1204-0.1205-0.1204-0.1204-0.1205-0.1204-0.1205-0.1204-0.1204-0.1205-0.1204-0.1205-0.1204-0.1204-0.1205-0.1204-0.1205-0.1204-0.1204-0.1205-0.1204-0.1204-0.1205-0.1204-0.1205-0.1204-0.1204-0.1205-0.1204-0.1205-0.1204-0.1204-0.1205-0.1204-0.1205-0.1204-0.1204-0.1205-0.1204-0.1205-0.1204-0.1204-0.1205-0.1204-0.1205-0.1204-0.1204-0.1205-0.1204-0.1204-0.1205-0.1204-0.1205-0.1204-0.1204-0.1205-0.1204-0.1205-0.1204-0.1204-0.1205-0.1204-0.1205-0.1204-0.1204-0.1205-0.1204-0.1205-0.1204-0.1204-0.1205-0.1204-0.1205-0.1204-0.1204-0.1205-0.1204-0.1205-0.1204-0.1204-0.1205-0.1204-0.1204-0.1205-0.1204-0.1205-0.1204-0.1204-0.1205-0.2587v-26.344s0.089,0.0245,0.2587,0.0673l0.1205,0.0301,0.1204,0.0294,0.1204,0.0289,0.1205,0.0285,0.1204,0.028,0.1205,0.0276,0.1204,0.0272,0.1204,0.0268,0.1205,0.0264,0.1204,0.0261,0.1204,0.0257,0.1205,0.0254,0.1204,0.0251,0.1205,0.0246,0.1204,0.0244,0.1204,0.0241,0.1205,0.0238,0.1204,0.0234,0.1205,0.0233,0.1204,0.0229,0.1204,0.0225,0.1205,0.0223,0.1204,0.022,0.1205,0.0217,0.1204,0.0215,0.1204,0.0211,0.1205,0.0209,0.1204,0.0205,0.1205,0.0203,0.1204,0.02,0.1204,0.0198,0.1205,0.0195,0.1204,0.0192,0.1205,0.019,0.1204,0.0187,0.1204,0.0185,0.1205,0.0181,0.1204,0.0179,0.1205,0.0176,0.1204,0.0174,0.1204,0.0171,0.1205,0.0169,0.1204,0.0165,0.1204,0.0164,0.1205,0.016,0.1204,0.0158,0.1205,0.0156,0.1204,0.0152,0.1204,0.0151,0.1205,0.0147,0.1204,0.0146,0.1205,0.0141,0.1204,0.0141,0.1204,0.0136,0.1205,0.0136,0.1204,0.0132,0.1205,0.0129,0.1204,0.0128,0.1204,0.0123,0.1205,0.0123,0.1204,0.0118,0.1205,0.0117,0.1204,0.0115,0.1204,0.011,0.1205,0.0111,0.1204,0.0104,0.1205,0.0104,0.1204,0.0101,0.1204,0.0098,0.1205,0.0097,0.1204,0.0091,0.1204,0.0092,0.1205,0.0087,0.1204,0.0085,0.1205,0.0084,0.1204,0.0078,0.1204,0.0078,0.1205,0.0075,0.1204,0.0071,0.1205,0.0071,0.1204,0.0065,0.1204,0.0064,0.1205,0.0062,0.1204,0.0057,0.1205,0.0057,0.1204,0.0052,0.1204,0.005,0.1205,0.005,0.1204,0.0042,0.1205,0.0043,0.1204,0.004,0.1204,0.0035,0.1205,0.0036,0.1204,0.003,0.1205,0.0027,0.1204,0.0028,0.1204,0.002,0.1205,0.002,0.1204,0.0018,0.1204,0.0012,0.1205,0.0013,0.1204,0.0009,0.1205,0.0004,0.1204,0.0003,0.0465,0.0002,0.0739-0.0004,0.1205-0.0008,0.1204-0.0007,0.1205-0.0007,0.1204-0.0007,0.1204-0.0022,0.1205-0.0022,0.1204-0.0022,0.1205-0.0022,0.1204-0.003,0.1204-0.0038,0.1205-0.0037,0.1204-0.0037,0.1205-0.004,0.1204-0.0053,0.1204-0.0053,0.1205-0.0054,0.1204-0.0053,0.1205-0.0067,0.1204-0.0069,0.1204-0.007,0.1205-0.007,0.1204-0.008,0.1205-0.0087,0.1204-0.0086,0.1204-0.0087,0.1205-0.0096,0.1204-0.0104,0.1205-0.0104,0.1204-0.0105,0.1204-0.0113,0.1205-0.0123,0.1204-0.0122,0.1204-0.0123,0.1205-0.0134,0.1204-0.0141,0.1205-0.0142,0.1204-0.0141,0.1204-0.0157,0.1205-0.0161,0.1204-0.0161,0.1205-0.0164c0.0406-0.0058,0.0801-0.0122,0.1204-0.0181l0.1204-0.0181,0.1205-0.0182,0.1204-0.0191c0.0405-0.0065,0.0802-0.0136,0.1205-0.0203l0.1204-0.0202c0.0399-0.0068,0.0808-0.0133,0.1204-0.0203,0.0406-0.0072,0.0801-0.0149,0.1205-0.0223l0.1204-0.0225,0.1205-0.0225,0.1204-0.0236c0.0405-0.008,0.0802-0.0166,0.1204-0.0248l0.1205-0.0248,0.1204-0.0252c0.0407-0.0087,0.0801-0.0181,0.1204-0.0271l0.1205-0.0272c0.0399-0.0092,0.0808-0.0178,0.1204-0.0271,0.0407-0.0096,0.0802-0.0197,0.1205-0.0294l0.1204-0.0297c0.04-0.0099,0.0808-0.0195,0.1205-0.0296,0.0405-0.0103,0.0803-0.0211,0.1204-0.0316l0.1204-0.0322c0.0401-0.0108,0.0808-0.0213,0.1205-0.0323,0.0405-0.0111,0.0803-0.0227,0.1204-0.0341l0.1204-0.0349c0.0401-0.0117,0.0808-0.0231,0.1205-0.035l0.1204-0.0369,0.1205-0.0378c0.04-0.0126,0.0808-0.0249,0.1204-0.0378l0.1204-0.0401,0.1205-0.0408c0.04-0.0137,0.0809-0.0269,0.1204-0.0408,0.0407-0.0143,0.0802-0.0292,0.1205-0.0437l0.1204-0.0439c0.0401-0.0149,0.0807-0.0295,0.1204-0.0446,0.0407-0.0154,0.0803-0.0314,0.1205-0.0471s0.0807-0.0313,0.1204-0.0472l0.1205-0.049,0.1204-0.0506c0.04-0.0169,0.0809-0.0333,0.1204-0.0505,0.0408-0.0177,0.0802-0.0362,0.1205-0.0542l0.1204-0.0541,0.1204-0.056c0.0405-0.0191,0.0805-0.0386,0.1205-0.058,0.0401-0.0194,0.0809-0.0386,0.1204-0.0583,0.0408-0.0204,0.0803-0.0414,0.1205-0.062s0.0808-0.041,0.1204-0.0619c0.0407-0.0214,0.0804-0.0433,0.1205-0.0651,0.0404-0.0219,0.0806-0.0439,0.1204-0.0661,0.0405-0.0226,0.0806-0.0454,0.1204-0.0683,0.0406-0.0233,0.0806-0.047,0.1205-0.0707,0.0403-0.0239,0.0807-0.0478,0.1204-0.072,0.0407-0.0249,0.0805-0.0501,0.1205-0.0753,0.0403-0.0253,0.0808-0.0506,0.1204-0.0763,0.0407-0.0264,0.0804-0.0535,0.1204-0.0803,0.0403-0.0271,0.0809-0.0539,0.1205-0.0813,0.0408-0.0282,0.0804-0.0569,0.1204-0.0855,0.0403-0.0288,0.0809-0.0577,0.1204-0.0869,0.0408-0.0301,0.0806-0.0606,0.1205-0.0911,0.0405-0.0309,0.0808-0.062,0.1204-0.0933,0.0406-0.0321,0.0807-0.0646,0.1205-0.0972,0.0406-0.0333,0.0807-0.067,0.1204-0.1007,0.0405-0.0344,0.081-0.0687,0.1205-0.1035,0.0409-0.036,0.0805-0.0727,0.1204-0.1092,0.0404-0.037,0.081-0.0739,0.1204-0.1114,0.0409-0.0389,0.0808-0.0782,0.1205-0.1176,0.0407-0.0404,0.0808-0.0812,0.1204-0.1221,0.0405-0.0418,0.0811-0.0835,0.1204-0.1258,0.041-0.0443,0.0807-0.0891,0.1205-0.134,0.0409-0.0461,0.0809-0.0926,0.1204-0.1393,0.0407-0.0481,0.0812-0.0963,0.1205-0.1451,0.0408-0.0507,0.0811-0.1014,0.1204-0.1527,0.0411-0.0537,0.0809-0.1079,0.1204-0.1623,0.0411-0.0566,0.0811-0.1136,0.1205-0.171,0.0411-0.0598,0.0812-0.1201,0.1204-0.1808,0.0411-0.0636,0.0813-0.1277,0.1204-0.1923,0.0412-0.0682,0.0815-0.1367,0.1205-0.2059,0.0414-0.0733,0.0815-0.1471,0.1204-0.2215,0.0416-0.0796,0.0817-0.1597,0.1205-0.2404,0.0418-0.0868,0.0818-0.1744,0.1204-0.2625,0.0419-0.0958,0.0822-0.1922,0.1205-0.2895,0.0422-0.1073,0.0825-0.2155,0.1204-0.3246,0.043-0.1238,0.0829-0.2489,0.1204-0.375,0.0438-0.1474,0.0839-0.2963,0.1205-0.4466,0.0454-0.1865,0.0857-0.3751,0.1204-0.5658,0.0516-0.2839,0.0914-0.5723,0.1204-0.8645,0.0405-0.4075,0.0602-0.8223,0.0602-1.2436v-14.504h-0.0602-0.1204-0.1204-0.1205-0.1204-0.1204-0.1205-0.1204-0.1205-0.1204-0.1205-0.1204-0.1204-0.1205-0.1204-0.1204-0.1205-0.1204-0.1205-0.1204-0.1204-0.1205-0.1204-0.1204-0.1205-0.1204-0.1205-0.1204-0.1205-0.1204-0.1204-0.1205-0.1204-0.1204-0.1205-0.1204-0.1205-0.1204-0.1204-0.1205-0.1204-0.1205-0.1204-0.1205-0.1204-0.1204-0.1205-0.1204-0.1204-0.1205-0.1204-0.1205-0.1204-0.1204-0.1205-0.1204-0.1205-0.1204-0.1204-0.1205-0.1204-0.1205-0.1204-0.1204-0.1205-0.1204-0.1204-0.1205-0.1204-0.1205-0.1204-0.1205-0.1204-0.1204-0.1205-0.1204-0.1204-0.1205-0.1204-0.1205-0.1204-0.1204-0.1205-0.1204-0.1205-0.1204-0.1204-0.1205-0.1204-0.0913v14.504c0,0.227-0.0099,0.4504-0.0292,0.6695-0.0246,0.2791-0.0649,0.5512-0.1204,0.8158-0.0343,0.1634-0.0745,0.3238-0.1204,0.4812-0.0366,0.1254-0.0766,0.2488-0.1205,0.3701-0.0374,0.1033-0.0777,0.2049-0.1204,0.3051-0.0381,0.0894-0.0782,0.1774-0.1205,0.2642-0.0385,0.079-0.0784,0.1571-0.1204,0.2338-0.0386,0.0706-0.079,0.1398-0.1204,0.2084-0.0389,0.0645-0.079,0.1282-0.1205,0.1909-0.039,0.0588-0.0792,0.1168-0.1204,0.174-0.0392,0.0545-0.0791,0.1086-0.1204,0.1617-0.0392,0.0504-0.0795,0.0998-0.1205,0.1488-0.0393,0.0469-0.0794,0.0931-0.1204,0.1388-0.0394,0.044-0.0795,0.0875-0.1205,0.1302-0.0395,0.0412-0.0795,0.082-0.1204,0.1221-0.0395,0.0387-0.0796,0.0771-0.1204,0.1147-0.0395,0.0364-0.0798,0.0721-0.1205,0.1075-0.0395,0.0343-0.0797,0.0682-0.1204,0.1015-0.0396,0.0324-0.0799,0.0643-0.1205,0.0958-0.0396,0.0306-0.0798,0.0608-0.1204,0.0906-0.0397,0.029-0.0798,0.0576-0.1204,0.0857-0.0397,0.0275-0.0798,0.0545-0.1205,0.0812-0.0397,0.026-0.0798,0.0516-0.1204,0.0768-0.0397,0.0246-0.0799,0.0488-0.1205,0.0726-0.0397,0.0233-0.0799,0.0461-0.1204,0.0687-0.0397,0.0221-0.0799,0.0436-0.1204,0.065-0.0398,0.021-0.0799,0.0415-0.1205,0.0617-0.0398,0.0198-0.0799,0.0393-0.1204,0.0585-0.0399,0.0188-0.0799,0.0375-0.1205,0.0556-0.0399,0.0178-0.0799,0.0354-0.1204,0.0525-0.0397,0.0168-0.08,0.033-0.1204,0.0491-0.0398,0.0159-0.0801,0.0314-0.1205,0.0466-0.0399,0.015-0.0799,0.0297-0.1204,0.0441-0.0399,0.0142-0.08,0.0283-0.1205,0.0418-0.0398,0.0133-0.08,0.0263-0.1204,0.039-0.0398,0.0125-0.0801,0.0245-0.1204,0.0364-0.0399,0.0118-0.0801,0.0234-0.1205,0.0345-0.04,0.011-0.08,0.0221-0.1204,0.0325-0.0399,0.0103-0.0801,0.0202-0.1205,0.0299-0.0398,0.0096-0.08,0.0188-0.1204,0.0278-0.0399,0.0089-0.08,0.0177-0.1204,0.0261-0.04,0.0083-0.08,0.0164-0.1205,0.0241-0.0399,0.0076-0.0801,0.0147-0.1204,0.0218-0.04,0.007-0.0801,0.014-0.1205,0.0205l-0.1204,0.0184c-0.0399,0.0058-0.0801,0.0111-0.1204,0.0164-0.04,0.0053-0.08,0.0105-0.1205,0.0152l-0.1204,0.0134c-0.0399,0.0041-0.0801,0.0077-0.1204,0.0114-0.0401,0.0036-0.0801,0.0073-0.1205,0.0104-0.0399,0.0031-0.0801,0.0058-0.1204,0.0084-0.04,0.0026-0.0802,0.0048-0.1205,0.0069-0.0401,0.0021-0.08,0.0042-0.1204,0.0058-0.0399,0.0016-0.0802,0.0025-0.1204,0.0037l-0.1205,0.0028c-0.0399,0.0007-0.0801,0.0009-0.1204,0.0012l-0.0453,0.0004-0.0752-0.0003-0.1204-0.0008h-0.124l-0.121-0.003-0.12-0.003-0.121-0.004-0.12-0.005-0.121-0.005-0.12-0.007-0.121-0.007-0.12-0.007-0.12-0.009-0.121-0.009-0.12-0.01-0.121-0.011-0.12-0.012-0.121-0.012-0.12-0.013-0.121-0.014-0.12-0.014-0.12-0.016-0.121-0.016-0.12-0.016-0.121-0.018-0.12-0.018-0.121-0.019-0.12-0.019-0.121-0.02-0.12-0.021-0.12-0.022-0.121-0.023-0.12-0.022-0.121-0.024-0.12-0.025-0.121-0.025-0.12-0.026-0.121-0.026-0.12-0.027-0.12-0.028-0.121-0.028-0.12-0.03-0.121-0.029-0.12-0.031-0.121-0.031-0.12-0.032-0.12-0.032-0.121-0.033-0.12-0.034-0.121-0.034-0.12-0.035-0.121-0.036-0.12-0.036-0.12-0.037-0.121-0.038-0.12-0.038-0.121-0.039-0.12-0.039-0.121-0.04-0.12-0.041-0.1206-0.041-0.1204-0.042-0.1205-0.042-0.1204-0.043-0.1204-0.044-0.1205-0.044-0.1204-0.045-0.1205-0.045-0.1204-0.046-0.1204-0.047-0.1205-0.047-0.1204-0.048-0.1205-0.048-0.1204-0.049-0.1204-0.049-0.1205-0.05-0.1204-0.051-0.1205-0.051-0.1204-0.051-0.1204-0.052-0.1205-0.053-0.1204-0.054-0.1204-0.053-0.1205-0.055-0.1204-0.054-0.1205-0.056-0.1204-0.056-0.1204-0.056-0.1205-0.057v-0.0001z"/>
        <path fill="url(#id1)" class="fil3" d="m41.091,34.485c-0.0878,0.071-0.1742,0.1426-0.2586,0.2151v-16.366c0-0.8703,0.0893-1.7198,0.2586-2.5401,0.0364-0.1761,0.0767-0.3506,0.1204-0.5239,0.0375-0.1487,0.0778-0.2962,0.1205-0.4427,0.0381-0.1305,0.0783-0.2601,0.1205-0.3888,0.0385-0.1176,0.0785-0.2346,0.1204-0.3506,0.0388-0.1075,0.0788-0.2145,0.1205-0.3206,0.039-0.0992,0.079-0.1979,0.1204-0.2959,0.0391-0.0924,0.0792-0.1842,0.1204-0.2755,0.0391-0.0867,0.0795-0.1728,0.1205-0.2584,0.0392-0.0818,0.0795-0.1628,0.1204-0.2436,0.0393-0.0776,0.0796-0.1546,0.1205-0.2313,0.0394-0.0739,0.0796-0.1473,0.1204-0.2203,0.0395-0.0707,0.0796-0.1411,0.1205-0.2109,0.0396-0.0678,0.0795-0.1353,0.1204-0.2023,0.0395-0.0647,0.0797-0.129,0.1204-0.1929,0.0396-0.0622,0.0799-0.1237,0.1205-0.1851,0.0397-0.0601,0.0797-0.1198,0.1204-0.1791,0.0399-0.0582,0.0797-0.1164,0.1205-0.1738,0.0395-0.0556,0.08-0.1103,0.1204-0.1651,0.0398-0.054,0.0799-0.1077,0.1205-0.161,0.0399-0.0525,0.0797-0.1051,0.1204-0.1569,0.0395-0.0503,0.0802-0.0999,0.1205-0.1496,0.0398-0.0491,0.0799-0.098,0.1204-0.1464,0.0399-0.0478,0.0799-0.0954,0.1205-0.1425,0.0397-0.046,0.0801-0.0914,0.1204-0.1368,0.0399-0.045,0.0799-0.0902,0.1205-0.1347,0.0397-0.0435,0.08-0.0865,0.1203-0.1294,0.0398-0.0424,0.08-0.0845,0.1204-0.1264,0.04-0.0413,0.08-0.0826,0.1205-0.1234,0.0398-0.04,0.0801-0.0795,0.1204-0.119,0.0401-0.0393,0.0799-0.0789,0.1205-0.1177,0.0397-0.0379,0.0802-0.0749,0.1204-0.1123,0.04-0.0373,0.0799-0.0747,0.1205-0.1114,0.0398-0.036,0.0802-0.0714,0.1204-0.1069,0.04-0.0354,0.08-0.0707,0.1205-0.1055,0.0399-0.0343,0.0801-0.068,0.1204-0.1018,0.04-0.0335,0.0801-0.067,0.1205-0.1001,0.0399-0.0326,0.0801-0.0649,0.1204-0.097,0.04-0.0319,0.0801-0.0636,0.1205-0.095,0.0399-0.031,0.0801-0.0617,0.1204-0.0923,0.04-0.0303,0.0801-0.0605,0.1204-0.0903,0.0399-0.0296,0.0802-0.0588,0.1205-0.0879,0.04-0.0288,0.0801-0.0576,0.1204-0.086,0.04-0.0281,0.0802-0.0558,0.1205-0.0835,0.04-0.0275,0.0801-0.0549,0.1204-0.0819,0.0399-0.0267,0.0802-0.053,0.1205-0.0793,0.04-0.0262,0.08-0.0524,0.1204-0.0781,0.04-0.0254,0.0802-0.0502,0.1205-0.0752,0.0401-0.0249,0.08-0.0501,0.1204-0.0745,0.06-0.0223,0.101-0.0457,0.141-0.0694s0.08-0.0479,0.12-0.0711c0.04-0.0229,0.081-0.0449,0.121-0.0674s0.08-0.0452,0.12-0.0672c0.04-0.0218,0.08-0.0428,0.121-0.0642,0.04-0.0213,0.08-0.0427,0.12-0.0636l0.1204-0.0613,0.1205-0.0599c0.04-0.0196,0.0801-0.0394,0.1204-0.0586,0.04-0.0191,0.0803-0.0376,0.1205-0.0563,0.0402-0.0186,0.08-0.0378,0.1204-0.056,0.0399-0.0181,0.0803-0.0351,0.1205-0.0527,0.0401-0.0176,0.0801-0.0355,0.1204-0.0527,0.04-0.017,0.0802-0.0335,0.1204-0.0501l0.1205-0.0492c0.0401-0.0161,0.0801-0.0322,0.1204-0.0479,0.04-0.0156,0.0803-0.0306,0.1205-0.0458s0.08-0.0309,0.1204-0.0457c0.0399-0.0146,0.0804-0.0282,0.1205-0.0424s0.0801-0.0286,0.1204-0.0424c0.04-0.0138,0.0803-0.027,0.1205-0.0403l0.1204-0.0391c0.0401-0.0128,0.0802-0.0259,0.1205-0.0384,0.0399-0.0123,0.0803-0.0239,0.1204-0.0358,0.0401-0.012,0.0802-0.0243,0.1205-0.0359,0.04-0.0115,0.0802-0.0222,0.1204-0.0333l0.128-0.0327c0.0402-0.0106,0.0802-0.0214,0.1205-0.0316,0.04-0.0101,0.0803-0.0196,0.1204-0.0294s0.0802-0.02,0.1205-0.0294c0.04-0.0093,0.0803-0.018,0.1204-0.0269l0.123-0.0262c0.04-0.0085,0.08-0.0173,0.12-0.0254s0.081-0.0154,0.121-0.0231,0.08-0.0158,0.12-0.0231l0.121-0.0208,0.12-0.0199c0.04-0.0065,0.08-0.0134,0.121-0.0195,0.04-0.0061,0.08-0.0112,0.12-0.0169,0.04-0.0056,0.08-0.0115,0.12-0.0168l0.1205-0.0151,0.1204-0.0138c0.0402-0.0045,0.0802-0.0097,0.1205-0.0138,0.04-0.0041,0.0803-0.0071,0.1204-0.0108l0.123-0.0106c0.04-0.0034,0.08-0.0067,0.12-0.0096s0.08-0.0052,0.12-0.0077c0.041-0.0025,0.081-0.0054,0.121-0.0076s0.08-0.0037,0.12-0.0055l0.1204-0.0046c0.0402-0.0014,0.0802-0.0035,0.1205-0.0045,0.04-0.001,0.0803-0.0009,0.1204-0.0015,0.0402-0.0006,0.0803-0.0013,0.1205-0.0015l0.0531-0.0007h0.0673,0.1205,0.1204,0.1204,0.1205,0.1204,0.1205,0.1204,0.1205,0.1204,0.1205,0.1204,0.1204,0.1205,0.1204,0.1205,0.1204,0.1205,0.1204,0.1204,0.1205,0.1204,0.1205,0.1204,0.1205,0.1205,0.1204,0.1205,0.1204,0.1204,0.1205,0.1204,0.1205,0.1204,0.1205,0.1204,0.1204,0.1205,0.1204,0.1205,0.1204,0.1205,0.1204,0.1205,0.1204,0.1204,0.1205,0.1204,0.1205,0.1204,0.1205,0.1204,0.1205,0.1204,0.1204,0.1205,0.1205,0.1204,0.1205,0.1204,0.1205,0.1204,0.1204,0.1205,0.1204,0.1205,0.1204,0.1205,0.1204,0.1205,0.1204,0.1204,0.1205,0.1204,0.1205,0.1204,0.1205,0.1204,0.1205,0.1204,0.1204,0.1205,0.1204,0.1205,0.1204,0.1205,0.1204,0.1205,0.1204,0.1205,0.1204,0.1205,0.1204,0.1205,0.1204,0.1205,0.1204,0.1204,0.1205,0.1204,0.1205,0.1204,0.1205,0.1204,0.1205,0.1204,0.1204,0.1205,0.1204,0.1205,0.1204,0.1205,0.1204,0.1205,0.1204,0.1204,0.1205,0.1204,0.1205,0.1205,0.1204,0.1205,0.1204,0.1204,0.1205,0.1204,0.1205,0.1204,0.1205,0.1204,0.1205,0.1204,0.1204,0.1205,0.1204,0.1205,0.1204,0.1205,0.1204,0.1204,0.1205,0.1204,0.1205,0.1204,0.1205,0.1204,0.1205,0.1204,0.1204,0.1205,0.1205,0.1204,0.1021v62.502c0,0.5435-0.0348,1.0787-0.1021,1.6039-0.0324,0.2529-0.0731,0.5031-0.1204,0.751-0.036,0.1887-0.0761,0.376-0.1205,0.5616-0.0374,0.1563-0.0773,0.3116-0.1205,0.4656-0.0379,0.1351-0.0781,0.2692-0.1204,0.4024-0.0383,0.1206-0.0786,0.2402-0.1204,0.3592-0.0387,0.1101-0.0789,0.2196-0.1205,0.3283-0.0389,0.1014-0.0789,0.2021-0.1204,0.3023-0.0391,0.0944-0.0792,0.1883-0.1205,0.2815-0.0391,0.0884-0.0793,0.1761-0.1204,0.2634-0.0393,0.0834-0.0794,0.1663-0.1205,0.2486-0.0393,0.0789-0.0795,0.1574-0.1204,0.2354-0.0395,0.0752-0.0795,0.1499-0.1205,0.2242-0.0396,0.0718-0.0794,0.1433-0.1204,0.2142-0.0394,0.0683-0.0797,0.1362-0.1204,0.2037-0.0395,0.0655-0.0798,0.1302-0.1205,0.1949-0.0396,0.063-0.0797,0.1257-0.1204,0.1879-0.0398,0.0609-0.0796,0.1219-0.1205,0.182-0.0396,0.0583-0.0799,0.1161-0.1204,0.1737-0.0396,0.0563-0.0799,0.1121-0.1205,0.1678-0.0398,0.0547-0.0798,0.1093-0.1204,0.1633-0.0397,0.0527-0.0799,0.1049-0.1204,0.157-0.0397,0.051-0.0801,0.1015-0.1205,0.1518-0.0399,0.0497-0.0797,0.0993-0.1204,0.1484-0.0397,0.0479-0.0801,0.0952-0.1205,0.1426-0.0398,0.0466-0.0799,0.0927-0.1204,0.1387-0.04,0.0454-0.0799,0.0909-0.1205,0.1358-0.0397,0.0438-0.0802,0.0868-0.1204,0.1301-0.04,0.0429-0.0799,0.086-0.1205,0.1284-0.0398,0.0415-0.0801,0.0823-0.1204,0.1232-0.0399,0.0405-0.0799,0.0807-0.1204,0.1207-0.0399,0.0395-0.08,0.0787-0.1205,0.1177-0.0398,0.0383-0.0801,0.0761-0.1204,0.1139-0.0401,0.0375-0.08,0.0753-0.1205,0.1123-0.0398,0.0363-0.0802,0.0719-0.1205,0.1077-0.0401,0.0357-0.0798,0.0717-0.1204,0.1068-0.0398,0.0345-0.0803,0.0681-0.1205,0.102-0.0401,0.0339-0.0799,0.0681-0.1204,0.1014-0.0398,0.0328-0.0803,0.0647-0.1204,0.097-0.0401,0.0322-0.08,0.0647-0.1205,0.0964-0.0398,0.0312-0.0802,0.0616-0.1204,0.0923-0.0401,0.0306-0.08,0.0614-0.1205,0.0916-0.0398,0.0297-0.0802,0.0587-0.1204,0.0879-0.0401,0.0291-0.08,0.0586-0.1205,0.0872-0.0398,0.0282-0.0802,0.0557-0.1204,0.0835-0.0401,0.0278-0.08,0.0559-0.1205,0.0832-0.0398,0.0268-0.0802,0.0529-0.1204,0.0793-0.0401,0.0264-0.0799,0.0533-0.1204,0.0792-0.0399,0.0256-0.0804,0.0502-0.1205,0.0753s-0.08,0.0505-0.1204,0.0751c-0.0399,0.0243-0.0803,0.0478-0.1205,0.0717-0.0401,0.0238-0.0801,0.0478-0.1204,0.0712-0.04,0.0231-0.0802,0.0458-0.1205,0.0685l-0.1204,0.0673-0.1205,0.0653-0.1204,0.0635c-0.0401,0.0209-0.0801,0.0419-0.1204,0.0624-0.04,0.0203-0.0802,0.04-0.1205,0.0599-0.0401,0.0199-0.08,0.0402-0.1204,0.0596-0.0399,0.0192-0.0804,0.0375-0.1205,0.0563s-0.0801,0.038-0.1204,0.0563c-0.04,0.0182-0.0804,0.0357-0.1205,0.0535l-0.1204,0.0526-0.1205,0.0511-0.1204,0.0493c-0.0402,0.0163-0.0802,0.0329-0.1205,0.0488-0.0399,0.0157-0.0803,0.0304-0.1204,0.0457-0.0402,0.0153-0.0801,0.0309-0.1205,0.0458-0.04,0.0148-0.0802,0.0289-0.1204,0.0433l-0.1205,0.0425-0.1204,0.0412c-0.04,0.0134-0.0803,0.0261-0.1205,0.0391s-0.0801,0.0266-0.1204,0.0391c-0.0399,0.0125-0.0803,0.024-0.1204,0.0361l-0.1205,0.0358-0.1204,0.0343c-0.0401,0.0112-0.0803,0.0219-0.1205,0.0326-0.0402,0.0108-0.08,0.0222-0.1204,0.0326-0.04,0.0103-0.0803,0.0195-0.1205,0.0294-0.0401,0.0099-0.0802,0.0199-0.1204,0.0294l-0.1205,0.0278-0.1204,0.0262c-0.0402,0.0086-0.0801,0.0179-0.1204,0.0262-0.04,0.0082-0.0804,0.0154-0.1205,0.0232l-0.1204,0.023-0.1205,0.0217c-0.04,0.007-0.0802,0.0134-0.1204,0.02s-0.0802,0.0137-0.1205,0.0199c-0.04,0.0062-0.0803,0.0115-0.1204,0.0173l-0.1205,0.0169c-0.0401,0.0054-0.0802,0.0109-0.1204,0.0159-0.04,0.005-0.0803,0.0092-0.1204,0.0138-0.0402,0.0046-0.0802,0.0096-0.1205,0.0138-0.04,0.0042-0.0802,0.0078-0.1204,0.0116l-0.1205,0.0108c-0.0402,0.0034-0.0801,0.0075-0.1204,0.0105-0.04,0.003-0.0803,0.005-0.1205,0.0076l-0.1205,0.0077-0.1204,0.0064c-0.04,0.0019-0.0803,0.003-0.1204,0.0045-0.0402,0.0015-0.0803,0.0034-0.1205,0.0046-0.04,0.0011-0.0802,0.0015-0.1204,0.0023l-0.1205,0.0016c-0.0375,0.0003-0.0748,0.0014-0.1124,0.0014h-0.008-0.1205-0.1204-0.1205-0.1204-0.1204-0.1205-0.1204-0.1205-0.1204-0.1205-0.1204-0.1205-0.1204-0.1204-0.1205-0.1204-0.1205-0.1204-0.1205-0.1204-0.1204-0.1205-0.1204-0.1205-0.1205-0.1204-0.1205-0.1204-0.1205-0.1204-0.1204-0.1205-0.1204-0.1205-0.1204-0.1205-0.1204-0.1204-0.1205-0.1204-0.1205-0.1204-0.1205-0.1204-0.1205-0.1204-0.1204-0.1205-0.1204-0.1205-0.1204-0.1205-0.1204-0.1205-0.1205-0.1204-0.1204-0.1205-0.1204-0.1205-0.1204-0.1205-0.1204-0.1204-0.1205-0.1204-0.1205-0.1204-0.1205-0.1204-0.1205-0.1204-0.1205-0.1204-0.1205-0.1204-0.1204-0.1205-0.1204-0.1205-0.1204-0.1205-0.1204-0.1205-0.1204-0.1205-0.1204-0.1205-0.1204-0.1204-0.1205-0.1204-0.1205-0.1204-0.1205-0.1204-0.1205-0.1204-0.1204-0.1205-0.1204-0.1205-0.1204-0.1205-0.1204-0.1205-0.1204-0.1205-0.1204-0.1205-0.1204-0.1204-0.1205-0.1204-0.1205-0.1204-0.1205-0.1204-0.1205-0.1204-0.1205-0.1204-0.1205-0.1204-0.1203-0.1205-0.1204-0.1205-0.1204-0.1205-0.1204-0.1205-0.1204-0.1205-0.1204-0.1205-0.1204-0.1204-0.1205-0.1204-0.1205-0.1204-0.1205-0.1204-0.1204-0.1205-0.1204-0.1205-0.1205-0.1204-0.2586v-28.862c0.0844,0.0724,0.1708,0.1439,0.2586,0.2149,0.0398,0.0322,0.08,0.0642,0.1204,0.096,0.0399,0.0314,0.08,0.0627,0.1205,0.0938,0.04,0.0306,0.0799,0.0612,0.1205,0.0916,0.0397,0.0297,0.0801,0.059,0.1204,0.0884,0.0398,0.029,0.0801,0.0579,0.1205,0.0866,0.0399,0.0283,0.0799,0.0566,0.1204,0.0847l0.1204,0.0825c0.0398,0.0269,0.0801,0.0536,0.1205,0.0802l0.1204,0.0786c0.0399,0.0258,0.08,0.0515,0.1205,0.077,0.0397,0.025,0.0801,0.0498,0.1204,0.0746l0.1205,0.0733c0.04,0.024,0.08,0.048,0.1204,0.0717,0.0398,0.0234,0.0801,0.0464,0.1204,0.0695l0.1205,0.0685,0.1204,0.0667,0.1205,0.0652c0.04,0.0214,0.0799,0.043,0.1204,0.0642,0.0398,0.0209,0.0802,0.0414,0.1205,0.062l0.1204,0.0612,0.1205,0.0599,0.1204,0.0582c0.0401,0.0192,0.08,0.0386,0.1205,0.0576l0.1204,0.0556,0.1205,0.0551,0.1203,0.0533,0.1204,0.0526,0.1205,0.0514,0.1204,0.0502,0.1205,0.0494,0.1204,0.048,0.1205,0.0476,0.1204,0.0458c0.0401,0.0152,0.08,0.0306,0.1205,0.0456l0.1204,0.0439c0.0401,0.0146,0.08,0.0295,0.1205,0.0439,0.0398,0.0142,0.0803,0.0279,0.1204,0.0419l0.1205,0.042,0.1204,0.0403c0.0401,0.0134,0.0799,0.0271,0.1204,0.0403,0.0398,0.0131,0.0803,0.0257,0.1205,0.0386l0.1204,0.0386,0.1205,0.037,0.1204,0.0369,0.1205,0.0355,0.1204,0.0352,0.1205,0.0342,0.1204,0.0337,0.1205,0.0328,0.1204,0.0321,0.1205,0.0316,0.1204,0.0306,0.1204,0.0303,0.1205,0.0292,0.1204,0.0292,0.1205,0.0278,0.1204,0.0276,0.1205,0.0268,0.1204,0.0263,0.1205,0.0259,0.1204,0.0248,0.1204,0.0249,0.1205,0.0236,0.1204,0.0235,0.1205,0.0228,0.1204,0.0222,0.1205,0.022,0.1204,0.0209,0.1205,0.0208,0.1204,0.0201,0.1205,0.0196,0.1204,0.0194,0.1205,0.0183,0.1204,0.0184,0.1204,0.0176,0.1205,0.0171,0.1204,0.017,0.1205,0.0159,0.1204,0.0159,0.1205,0.0154,0.1204,0.0147,0.1205,0.0148,0.1204,0.0138,0.1205,0.0135,0.1204,0.0135,0.1205,0.0124,0.1204,0.0124,0.1204,0.012,0.1205,0.0113,0.1204,0.0113,0.1205,0.0106,0.1204,0.0102,0.1205,0.0102,0.1204,0.0093,0.1204,0.0091,0.1205,0.0092,0.1205,0.0081,0.1204,0.0081,0.1205,0.008,0.1204,0.007,0.1205,0.007,0.1204,0.0069,0.1205,0.0059,0.1204,0.006,0.1204,0.0059,0.1205,0.0049,0.1204,0.005,0.1205,0.0048,0.1204,0.004,0.1205,0.004,0.1204,0.0039,0.1205,0.003,0.1204,0.003,0.1204,0.003,0.1205,0.0021,0.1204,0.002,0.1205,0.0021,0.1204,0.0012,0.1205,0.0011,0.1204,0.0011,0.1204,0.0005,0.1205,0.0002,0.1204,0.0002,0.1205-0.0003,0.1204-0.0007,0.1205-0.0007,0.1205-0.001,0.1204-0.0016,0.1205-0.0016,0.1204-0.0016,0.1204-0.0025,0.1205-0.0024,0.1204-0.0025,0.1205-0.0031,0.1204-0.0033,0.1205-0.0034,0.1204-0.0036,0.1204-0.0042,0.1205-0.0041,0.1204-0.0042,0.1205-0.005,0.1204-0.005,0.1205-0.005,0.0588-0.0025,0.0616-0.003,0.1205-0.0058,0.1204-0.0064,0.1204-0.0066,0.1205-0.0073,0.1204-0.0074,0.1205-0.0081,0.1204-0.0082,0.1205-0.0089,0.1204-0.009,0.1205-0.0096,0.1204-0.0098,0.1204-0.0103,0.1205-0.0106,0.1205-0.0109,0.1204-0.0114,0.1205-0.0115,0.1204-0.0121,0.1205-0.0121,0.1204-0.0128,0.1204-0.0129,0.1205-0.0133,0.1204-0.0136,0.1205-0.0139,0.1204-0.0142,0.1205-0.0145,0.1204-0.0148,0.1205-0.0151,0.1204-0.0154,0.1204-0.0155,0.1205-0.0161,0.1204-0.0162,0.1205-0.0165,0.1204-0.0168,0.1205-0.017,0.1204-0.0174,0.1205-0.0175,0.1204-0.018,0.1204-0.0181,0.1205-0.0183,0.1204-0.0187,0.1205-0.0189,0.1204-0.0192,0.1205-0.0193,0.1204-0.0196,0.1205-0.02,0.1204-0.0201,0.1205-0.0204,0.1204-0.0206,0.1205-0.0209,0.1204-0.0211,0.1205-0.0214,0.1204-0.0216,0.1205-0.0218,0.1204-0.022,0.1204-0.0223,0.1205-0.0226,0.1204-0.0228,0.1205-0.023,0.1204-0.0232,0.1205-0.0235,0.1204-0.0237,0.1205-0.0239,0.1204-0.0242,0.1204-0.0244,0.1205-0.0247,0.1204-0.025,0.1205-0.0251,0.1204-0.0253,0.1205-0.0258,0.1204-0.0258,0.1205-0.0262,0.1204-0.0264,0.1204-0.0267,0.1205-0.0269,0.1204-0.0273,0.1205-0.0276,0.1205-0.0279,0.1204-0.0283,0.1205-0.0286,0.1204-0.029,0.1198-0.0296v-5.2878l-0.1198,0.0596-0.1204,0.0595-0.1205,0.0589-0.1204,0.0584-0.1205,0.058-0.1205,0.0573-0.1204,0.0566-0.1205,0.0562-0.1204,0.0555-0.1204,0.055-0.1205,0.0543-0.1204,0.0538-0.1205,0.053-0.1204,0.0524-0.1205,0.0519-0.1204,0.0512-0.1205,0.0506-0.1204,0.05-0.1204,0.0492-0.1205,0.0486-0.1204,0.048-0.1205,0.0474-0.1204,0.0465-0.1205,0.046-0.1204,0.0452-0.1205,0.0446-0.1204,0.0439-0.1204,0.0433-0.1205,0.0426-0.1204,0.0419-0.1205,0.0411-0.1204,0.0405-0.1205,0.0399-0.1204,0.0391-0.1205,0.0385-0.1204,0.0378-0.1205,0.037-0.1204,0.0364-0.1205,0.0358-0.1204,0.035-0.1205,0.0344-0.1204,0.0335-0.1205,0.033-0.1204,0.0323-0.1204,0.0316-0.1205,0.0309-0.1204,0.0302-0.1205,0.0295-0.1204,0.029-0.1205,0.0282-0.1204,0.0274-0.1205,0.0269-0.1204,0.0262-0.1204,0.0255-0.1205,0.0247-0.1204,0.0242-0.1205,0.0236-0.1204,0.0227-0.1205,0.0221-0.1204,0.0215-0.1205,0.0209-0.1204,0.02-0.1204,0.0195-0.1205,0.019-0.1204,0.0181-0.1205,0.0175-0.1204,0.017-0.1205,0.0162-0.1205,0.0155-0.1204,0.015-0.1204,0.0144-0.1205,0.0136-0.1204,0.013-0.1205,0.0125-0.1204,0.0116-0.1205,0.0112-0.1204,0.0106-0.1205,0.0098-0.073,0.0058-0.0474,0.0032-0.1204,0.0081-0.1205,0.008-0.1204,0.0065-0.1205,0.0061-0.1204,0.0056-0.1205,0.0039-0.1204,0.0039-0.1205,0.0026-0.1204,0.0018-0.1204,0.0015c-0.0404,0.0002-0.0803-0.0003-0.1205-0.0004l-0.105-0.006-0.121-0.001-0.12-0.003-0.12-0.003c-0.041-0.001-0.081-0.003-0.121-0.005s-0.08-0.003-0.12-0.005l-0.121-0.007-0.12-0.007-0.121-0.008-0.12-0.01c-0.04-0.003-0.081-0.006-0.121-0.009-0.04-0.004-0.08-0.009-0.12-0.013l-0.12-0.012-0.121-0.014-0.12-0.014-0.121-0.016-0.12-0.017c-0.04-0.006-0.081-0.012-0.121-0.018s-0.08-0.013-0.12-0.02-0.081-0.013-0.121-0.02-0.08-0.015-0.12-0.023c-0.04-0.007-0.081-0.014-0.12-0.022-0.041-0.008-0.081-0.017-0.121-0.025-0.04-0.009-0.081-0.017-0.12-0.026-0.041-0.009-0.081-0.018-0.121-0.027l-0.12-0.029c-0.041-0.01-0.081-0.02-0.121-0.03s-0.08-0.021-0.12-0.031c-0.041-0.011-0.081-0.022-0.121-0.034-0.04-0.011-0.08-0.022-0.12-0.034s-0.08-0.024-0.12-0.037c-0.041-0.012-0.081-0.024-0.121-0.037s-0.08-0.027-0.12-0.04c-0.041-0.013-0.081-0.027-0.121-0.041s-0.08-0.029-0.12-0.043c-0.04-0.015-0.081-0.029-0.121-0.045-0.04-0.015-0.08-0.031-0.12-0.047s-0.081-0.031-0.121-0.048c-0.04-0.016-0.08-0.034-0.12-0.051s-0.081-0.034-0.121-0.052-0.08-0.037-0.12-0.056-0.081-0.037-0.12-0.057c-0.041-0.019-0.081-0.039-0.121-0.059-0.04-0.021-0.08-0.041-0.12-0.062-0.041-0.021-0.081-0.042-0.121-0.064s-0.08-0.045-0.12-0.068c-0.041-0.022-0.081-0.045-0.121-0.069s-0.08-0.048-0.12-0.072c-0.041-0.025-0.081-0.051-0.12-0.076-0.041-0.026-0.081-0.051-0.121-0.078-0.041-0.027-0.08-0.055-0.12-0.082-0.041-0.028-0.081-0.057-0.121-0.085-0.04-0.029-0.081-0.058-0.12-0.088-0.041-0.031-0.081-0.062-0.121-0.094-0.04-0.031-0.08-0.063-0.12-0.096-0.041-0.033-0.081-0.066-0.121-0.1s-0.08-0.07-0.12-0.106c-0.041-0.036-0.081-0.073-0.121-0.11-0.04-0.038-0.08-0.076-0.12-0.115-0.041-0.039-0.081-0.079-0.121-0.119-0.04-0.042-0.08-0.085-0.12-0.128-0.041-0.044-0.081-0.088-0.12-0.133-0.041-0.046-0.081-0.093-0.121-0.14-0.041-0.049-0.081-0.098-0.12-0.147-0.041-0.052-0.081-0.104-0.121-0.156-0.04-0.055-0.081-0.11-0.12-0.166-0.041-0.057-0.081-0.116-0.121-0.175-0.041-0.062-0.081-0.125-0.12-0.188-0.041-0.066-0.081-0.134-0.121-0.202-0.041-0.071-0.081-0.144-0.12-0.217-0.041-0.078-0.081-0.156-0.12-0.236-0.042-0.085-0.082-0.171-0.121-0.258-0.041-0.093-0.082-0.188-0.12-0.284-0.043-0.106-0.082-0.214-0.121-0.323-0.042-0.121-0.082-0.244-0.12-0.369-0.044-0.144-0.084-0.292-0.121-0.441-0.045-0.186-0.085-0.376-0.12-0.57-0.0519-0.287-0.0923-0.582-0.1205-0.885-0.0324-0.3499-0.049-0.7104-0.049-1.0813,0-0.3711,0.0166-0.7318,0.049-1.082,0.0282-0.3031,0.0686-0.5982,0.1205-0.8854,0.035-0.1936,0.0748-0.384,0.1204-0.5702,0.0367-0.1496,0.077-0.2967,0.1205-0.4415,0.0376-0.1248,0.0779-0.2476,0.1204-0.3688,0.0384-0.1092,0.078-0.2174,0.1204-0.3236,0.0384-0.0961,0.0789-0.1905,0.1205-0.2841,0.0387-0.087,0.0789-0.1729,0.1204-0.2577,0.039-0.0797,0.079-0.1586,0.1205-0.2363,0.0391-0.0733,0.0791-0.1459,0.1204-0.2175,0.0392-0.068,0.0793-0.1353,0.1205-0.2017,0.0393-0.0634,0.0794-0.126,0.1204-0.1879,0.0393-0.0593,0.0796-0.1178,0.1205-0.1758,0.0393-0.0557,0.0796-0.1106,0.1204-0.1651,0.0394-0.0526,0.0797-0.1045,0.1205-0.156,0.0395-0.0497,0.0797-0.0988,0.1204-0.1474,0.0395-0.0473,0.0797-0.094,0.1205-0.1402,0.0396-0.0449,0.0796-0.0896,0.1204-0.1335,0.0397-0.0427,0.0796-0.0855,0.1204-0.1273,0.0395-0.0405,0.08-0.0802,0.1205-0.1198,0.0396-0.0387,0.0799-0.0769,0.1204-0.1148,0.0398-0.0371,0.0798-0.0741,0.1205-0.1104,0.0398-0.0355,0.0797-0.0711,0.1204-0.1059,0.0396-0.0338,0.0801-0.0668,0.1205-0.0999,0.0398-0.0325,0.0799-0.0646,0.1204-0.0964,0.0399-0.0314,0.0798-0.0627,0.1205-0.0933,0.0396-0.0298,0.08-0.0589,0.1204-0.088,0.0398-0.0288,0.08-0.057,0.1205-0.0851,0.04-0.0277,0.0797-0.0556,0.1204-0.0826,0.0396-0.0264,0.0802-0.052,0.1205-0.0777,0.0399-0.0255,0.0799-0.0508,0.1204-0.0756,0.0399-0.0245,0.0799-0.0488,0.1204-0.0727,0.0398-0.0235,0.0802-0.0463,0.1205-0.0692,0.04-0.0227,0.0798-0.0455,0.1204-0.0676,0.0397-0.0217,0.0802-0.0427,0.1205-0.0638,0.0399-0.0209,0.08-0.0416,0.1204-0.062,0.0399-0.0201,0.0801-0.04,0.1205-0.0596,0.0398-0.0193,0.0801-0.0381,0.1204-0.0569,0.04-0.0186,0.0799-0.0374,0.1204-0.0555,0.0398-0.0178,0.0802-0.0349,0.1205-0.0522,0.0401-0.0173,0.0799-0.0347,0.1205-0.0514,0.0398-0.0164,0.0802-0.0321,0.1204-0.048,0.0401-0.0159,0.08-0.0319,0.1205-0.0473,0.0398-0.0151,0.0802-0.0296,0.1204-0.0443,0.0401-0.0146,0.08-0.0293,0.1205-0.0435,0.0398-0.0139,0.0802-0.0274,0.1204-0.0409,0.04-0.0134,0.0801-0.0268,0.1205-0.0398,0.0399-0.0128,0.0801-0.0252,0.1204-0.0376,0.04-0.0123,0.08-0.0245,0.1204-0.0364l0.1205-0.0344c0.04-0.0112,0.08-0.0226,0.1204-0.0334,0.0399-0.0107,0.0802-0.0209,0.1205-0.0312,0.04-0.0102,0.08-0.0206,0.1204-0.0304l0.1205-0.0283c0.04-0.0093,0.08-0.0188,0.1204-0.0277,0.0399-0.0088,0.0803-0.017,0.1205-0.0254s0.0799-0.0172,0.1204-0.0252c0.0398-0.0079,0.0803-0.015,0.1204-0.0225,0.0402-0.0075,0.08-0.0154,0.1205-0.0226,0.0398-0.0071,0.0803-0.0133,0.1204-0.02s0.0801-0.0136,0.1205-0.0199l0.1204-0.0179,0.1205-0.0172,0.1204-0.0159,0.1204-0.0146,0.1205-0.014,0.1204-0.0121c0.0402-0.004,0.0801-0.0084,0.1205-0.0121,0.0399-0.0037,0.0803-0.0065,0.1204-0.0098l0.1205-0.0096,0.1205-0.0083,0.1204-0.0072,0.1205-0.0067c0.0399-0.002,0.0803-0.0033,0.1204-0.0049s0.08-0.0036,0.1204-0.0049l0.1205-0.0031,0.1204-0.0026,0.1205-0.0018,0.1204-0.0004c0.0402-0.0001,0.0801-0.0006,0.1205-0.0004l0.1204,0.0015,0.1204,0.0018,0.1205,0.0026,0.1204,0.0039,0.1205,0.0039,0.1204,0.0056,0.1205,0.0061,0.1204,0.0065,0.1205,0.008,0.1204,0.0081,0.0474,0.0032,0.073,0.0058,0.1205,0.0096,0.1204,0.0104,0.1205,0.011,0.1204,0.0115,0.1205,0.0123,0.1204,0.0129,0.1205,0.0134,0.1204,0.0141,0.1204,0.0148,0.1205,0.0153,0.1205,0.016,0.1204,0.0168,0.1205,0.0172,0.1204,0.0179,0.1205,0.0187,0.1204,0.0193,0.1204,0.0198,0.1205,0.0207,0.1204,0.0213,0.1205,0.0219,0.1204,0.0225,0.1205,0.0233,0.1204,0.0239,0.1205,0.0246,0.1204,0.0253,0.1204,0.026,0.1205,0.0267,0.1204,0.0272,0.1205,0.028,0.1204,0.0288,0.1205,0.0294,0.1204,0.03,0.1205,0.0308,0.1204,0.0315,0.1204,0.0321,0.1205,0.0329,0.1204,0.0336,0.1205,0.0342,0.1204,0.035,0.1205,0.0357,0.1204,0.0364,0.1205,0.037,0.1204,0.0377,0.1205,0.0385,0.1204,0.0392,0.1205,0.0399,0.1204,0.0406,0.1205,0.0412,0.1204,0.0419,0.1205,0.0428,0.1204,0.0434,0.1204,0.044,0.1205,0.0448,0.1204,0.0455,0.1205,0.0462,0.1204,0.0468,0.1205,0.0475,0.1204,0.0482,0.1205,0.0489,0.1204,0.0496,0.1204,0.0503,0.1205,0.0509,0.1204,0.0516,0.1205,0.0522,0.1204,0.0529,0.1205,0.0534,0.1204,0.0542,0.1205,0.0548,0.1204,0.0554,0.1204,0.056,0.1205,0.0567,0.1204,0.0572,0.1205,0.0578,0.1205,0.0584,0.1204,0.059,0.1205,0.0595,0.1204,0.0601,0.1198,0.0602v-5.2916l-0.045-0.029-0.12-0.029-0.121-0.029-0.12-0.028-0.121-0.028-0.12-0.027-0.121-0.028-0.12-0.027-0.121-0.026-0.12-0.027-0.121-0.026-0.12-0.026-0.12-0.025-0.121-0.026-0.12-0.025-0.121-0.025-0.12-0.024-0.121-0.025-0.12-0.024-0.121-0.024-0.12-0.024-0.12-0.023-0.121-0.023-0.12-0.023-0.121-0.023-0.12-0.022-0.121-0.023-0.12-0.022-0.121-0.022-0.12-0.021-0.12-0.022-0.121-0.021-0.12-0.021-0.121-0.02-0.12-0.02-0.121-0.02-0.12-0.02-0.121-0.02-0.12-0.019-0.12-0.019-0.121-0.019-0.12-0.019-0.121-0.018-0.12-0.018-0.121-0.018-0.12-0.018-0.121-0.017-0.12-0.017-0.12-0.017-0.121-0.016-0.12-0.017-0.121-0.016-0.12-0.015-0.121-0.015-0.12-0.016-0.121-0.014-0.12-0.015-0.12-0.014-0.121-0.014-0.12-0.013-0.121-0.014-0.12-0.012-0.121-0.013-0.12-0.012-0.121-0.012-0.12-0.012-0.12-0.011-0.121-0.011-0.12-0.01-0.121-0.011-0.12-0.009-0.121-0.01-0.12-0.009-0.121-0.009-0.12-0.008-0.12-0.008-0.121-0.007-0.12-0.007-0.121-0.007-0.12-0.006-0.121-0.006-0.061-0.003-0.059-0.003-0.121-0.004-0.12-0.006-0.12-0.004-0.121-0.005-0.12-0.004-0.121-0.004-0.12-0.004-0.121-0.003-0.12-0.003-0.121-0.003-0.12-0.003-0.12-0.002-0.121-0.003-0.12-0.001-0.121-0.002-0.1204-0.0016-0.1205-0.001-0.1205-0.0006-0.1204-0.0007-0.1205-0.0003-0.1204,0.0002-0.1205,0.0002-0.1204,0.0004-0.1204,0.0011-0.1205,0.0012-0.1204,0.0012-0.1205,0.0021-0.1204,0.002-0.1205,0.0021-0.1204,0.003-0.1204,0.003-0.1205,0.003-0.1204,0.0039-0.1205,0.004-0.1204,0.004-0.1205,0.0049-0.1204,0.005-0.1205,0.0049-0.1204,0.0059-0.1204,0.006-0.1205,0.0059-0.1204,0.0069-0.1205,0.007-0.1204,0.007-0.1205,0.008-0.1204,0.0081-0.1205,0.0081-0.1205,0.0092-0.1204,0.0091-0.1204,0.0094-0.1205,0.0102-0.1204,0.0101-0.1205,0.0107-0.1204,0.0113-0.1205,0.0113-0.1204,0.012-0.1204,0.0125-0.1205,0.0124-0.1204,0.0135-0.1205,0.0135-0.1204,0.0138-0.1205,0.0148-0.1204,0.0147-0.1205,0.0155-0.1204,0.0159-0.1205,0.0159-0.1204,0.017-0.1205,0.0171-0.1204,0.0176-0.1204,0.0184-0.1205,0.0183-0.1204,0.0194-0.1205,0.0197-0.1204,0.0201-0.1205,0.0208-0.1204,0.0209-0.1205,0.022-0.1204,0.0223-0.1205,0.0228-0.1204,0.0235-0.1205,0.0236-0.1204,0.0249-0.1204,0.0249-0.1205,0.0258-0.1204,0.0263-0.1205,0.0268-0.1204,0.0277-0.1205,0.0278-0.1204,0.0292-0.1205,0.0292-0.1204,0.0303-0.1204,0.0307-0.1205,0.0316-0.1204,0.0322-0.1205,0.0328-0.1204,0.0337-0.1205,0.0342-0.1204,0.0353-0.1205,0.0355-0.1204,0.0369-0.1205,0.0371-0.1204,0.0386c-0.0402,0.0129-0.0807,0.0255-0.1205,0.0386l-0.1204,0.0403c-0.0401,0.0134-0.0806,0.0266-0.1204,0.0403l-0.1205,0.042-0.1204,0.042c-0.0405,0.0144-0.0804,0.0293-0.1205,0.0439-0.0402,0.0146-0.0806,0.029-0.1204,0.0439l-0.1205,0.0457c-0.0402,0.0153-0.0806,0.0303-0.1204,0.0458l-0.1205,0.0476-0.1204,0.048-0.1205,0.0495-0.1204,0.0502-0.1205,0.0514-0.1204,0.0526-0.1203,0.0534-0.1205,0.0551-0.1204,0.0556c-0.0405,0.019-0.0804,0.0384-0.1205,0.0576l-0.1204,0.0583-0.1205,0.0599-0.1204,0.0612c-0.0403,0.0207-0.0807,0.0412-0.1205,0.0621-0.0405,0.0212-0.0804,0.0428-0.1204,0.0643l-0.1205,0.0652-0.1204,0.0667c-0.0405,0.0227-0.0805,0.0456-0.1205,0.0686-0.0403,0.0231-0.0806,0.0461-0.1204,0.0695-0.0404,0.0237-0.0804,0.0477-0.1204,0.0717-0.0405,0.0243-0.0806,0.0488-0.1205,0.0734-0.0403,0.0248-0.0807,0.0496-0.1204,0.0746-0.0405,0.0255-0.0806,0.0513-0.1205,0.077l-0.1204,0.0787c-0.0404,0.0267-0.0807,0.0532-0.1205,0.0802l-0.1204,0.0826c-0.0405,0.0281-0.0805,0.0564-0.1204,0.0847-0.0404,0.0287-0.0807,0.0576-0.1205,0.0867-0.0403,0.0294-0.0807,0.0587-0.1204,0.0884-0.0406,0.0304-0.0805,0.061-0.1205,0.0917-0.0405,0.0311-0.0806,0.0624-0.1205,0.0938-0.0404,0.0318-0.0806,0.0638-0.1204,0.096v-0.0001z"/>
    </g>
</svg>
