<?xml version="1.0" encoding="UTF-8" standalone="no"?>
<!-- Generator: Adobe Illustrator 13.0.0, SVG Export Plug-In . SVG Version: 6.00 Build 14948)  -->
<svg xmlns:rdf="http://www.w3.org/1999/02/22-rdf-syntax-ns#" xmlns="http://www.w3.org/2000/svg" xml:space="preserve" height="27.149" viewBox="0 0 45.346355 27.148998" width="45.346" version="1.1" y="0px" x="0px" xmlns:cc="http://creativecommons.org/ns#" xmlns:dc="http://purl.org/dc/elements/1.1/"><metadata><rdf:RDF><cc:Work rdf:about=""><dc:format>image/svg+xml</dc:format><dc:type rdf:resource="http://purl.org/dc/dcmitype/StillImage"/><dc:title/></cc:Work></rdf:RDF></metadata><g transform="matrix(0.15316351,0,0,0.15316351,-0.30127262,-0.2867216)"><path fill="#F90" d="m298.03,90.5c0.014,48.936-39.646,88.614-88.582,88.627-48.937,0.012-88.614-39.646-88.627-88.582v-0.045c-0.013-48.935,39.647-88.615,88.581-88.628,48.937-0.013,88.615,39.647,88.628,88.583v0.045z"/><path fill="#C00" d="M90.001,1.895c-48.646,0.309-88.034,39.886-88.034,88.605,0,48.909,39.695,88.604,88.605,88.604,22.955,0,43.879-8.748,59.624-23.086-0.001,0-0.003-0.002-0.007-0.004h0.019c3.224-2.938,6.231-6.108,8.995-9.488h-18.15c-2.424-2.928-4.627-5.979-6.606-9.127h31.308c1.904-3.047,3.628-6.211,5.158-9.488h-41.635c-1.419-3.042-2.651-6.153-3.703-9.309h49.045c2.956-8.832,4.56-18.281,4.56-28.103,0-6.512-0.706-12.861-2.042-18.974h-54.164c0.671-3.146,1.518-6.254,2.528-9.308h49.063c-1.097-3.25-2.371-6.417-3.82-9.487h-41.48c1.496-3.196,3.191-6.305,5.084-9.307h31.285c-2.082-3.317-4.386-6.486-6.877-9.488h-17.443c2.697-3.174,5.666-6.163,8.889-8.95-15.746-14.34-36.676-23.09-59.636-23.09-0.191,0-0.38-0.001-0.571,0z"/><path fill="#fcb340" d="m289.14,136.82c0.482,0,0.951,0.125,1.409,0.371,0.46,0.246,0.814,0.601,1.07,1.062,0.256,0.456,0.384,0.937,0.384,1.435,0,0.492-0.127,0.968-0.379,1.424-0.251,0.455-0.605,0.81-1.061,1.063-0.451,0.249-0.928,0.375-1.424,0.375s-0.972-0.126-1.426-0.375c-0.455-0.254-0.807-0.607-1.063-1.063-0.252-0.456-0.377-0.932-0.377-1.424,0-0.498,0.127-0.979,0.384-1.435,0.258-0.461,0.614-0.813,1.071-1.062,0.462-0.246,0.931-0.371,1.412-0.371m0,0.475c-0.401,0-0.793,0.104-1.176,0.311-0.38,0.207-0.677,0.5-0.891,0.888-0.217,0.382-0.325,0.778-0.325,1.194,0,0.412,0.106,0.81,0.315,1.188,0.214,0.377,0.51,0.673,0.888,0.885,0.381,0.211,0.776,0.315,1.188,0.315,0.414,0,0.81-0.104,1.189-0.315,0.378-0.212,0.673-0.508,0.884-0.885,0.209-0.378,0.313-0.775,0.313-1.188,0-0.416-0.106-0.813-0.321-1.194-0.213-0.388-0.511-0.681-0.894-0.888-0.379-0.208-0.769-0.311-1.17-0.311m-1.256,3.975v-3.082h1.062c0.36,0,0.622,0.028,0.784,0.088,0.162,0.057,0.291,0.154,0.388,0.297,0.095,0.141,0.144,0.291,0.144,0.451,0,0.226-0.08,0.422-0.242,0.588-0.158,0.166-0.373,0.261-0.639,0.281,0.109,0.045,0.196,0.102,0.264,0.164,0.125,0.12,0.275,0.323,0.455,0.61l0.375,0.603h-0.606l-0.272-0.485c-0.215-0.382-0.388-0.62-0.521-0.718-0.091-0.069-0.224-0.105-0.397-0.105h-0.293v1.311h-0.5m0.496-1.738h0.604c0.288,0,0.483-0.044,0.588-0.129,0.106-0.088,0.159-0.2,0.159-0.342,0-0.092-0.024-0.174-0.075-0.244-0.052-0.073-0.122-0.125-0.213-0.162-0.089-0.035-0.255-0.055-0.497-0.055h-0.564v0.932"/><g transform="translate(-13.74405,15.9939)"><path fill="#006" d="m133.72,99.926,1.18-8.02c-0.645,0-1.593,0.279-2.431,0.279-3.284,0-3.694-1.755-3.436-3.037l3.236-16.13h4.992l1.029-9.103h-4.705l0.958-5.516h-9.84c-0.208,0.208-5.568,31.022-5.568,34.776,0,5.555,3.118,8.027,7.516,7.988,3.442-0.029,6.125-0.982,7.071-1.237z"/><path fill="#006" d="m136.71,84.638c0,13.332,8.799,16.499,16.297,16.499,6.921,0,10.55-1.604,10.55-1.604l1.662-9.1s-5.848,2.378-10.601,2.378c-10.131,0-8.355-7.554-8.355-7.554l19.463,0.059s1.239-6.111,1.239-8.602c0-6.217-3.387-13.849-13.745-13.849-9.486,0.002-16.51,10.223-16.51,21.773zm16.546-13.325c5.324,0,4.342,5.984,4.342,6.469h-10.48c0-0.62,0.989-6.469,6.132-6.469z"/><path fill="#006" d="m212.99,99.923,1.689-10.284s-4.632,2.321-7.807,2.321c-6.693,0-9.378-5.11-9.378-10.601,0-11.137,5.758-17.265,12.168-17.265,4.808,0,8.665,2.699,8.665,2.699l1.54-9.993s-4.554-3.289-9.456-3.308c-14.745-0.058-23.182,10.208-23.182,27.955,0,11.763,6.248,19.768,17.506,19.768,3.183,0,8.255-1.292,8.255-1.292z"/><path fill="#006" d="m81.83,63.012c-6.469,0-11.427,2.079-11.427,2.079l-1.37,8.127s4.093-1.663,10.281-1.663c3.513,0,6.083,0.395,6.083,3.25,0,1.734-0.314,2.374-0.314,2.374s-2.772-0.231-4.056-0.231c-9.21,0-16.729,3.482-16.729,13.98,0,8.273,5.623,10.17,9.108,10.17,6.657,0,9.292-4.203,9.444-4.215l-0.077,3.488h8.307l3.706-25.98c0-11.024-9.616-11.378-12.956-11.378zm1.438,21.096c0.181,1.586-0.41,9.086-6.092,9.086-2.93,0-3.691-2.24-3.691-3.562,0-2.584,1.403-5.683,8.315-5.683,1.61,0,1.197,0.116,1.468,0.159z"/><path fill="#006" d="m103.62,100.91c2.125,0,14.272,0.541,14.272-11.994,0-11.721-11.244-9.404-11.244-14.114,0-2.342,1.833-3.08,5.184-3.08,1.329,0,6.447,0.423,6.447,0.423l1.189-8.33c0,0.001-3.312-0.741-8.704-0.741-6.979,0-14.063,2.786-14.063,12.318,0,10.802,11.812,9.717,11.812,14.267,0,3.037-3.3,3.287-5.844,3.287-4.401,0-8.363-1.511-8.377-1.438l-1.259,8.245c0.229,0.07,2.674,1.157,10.587,1.157z"/><path fill="#006" d="m290.81,55.455-1.705,12.709s-3.553-4.905-9.112-4.905c-10.459,0-15.849,10.423-15.849,22.396,0,7.73,3.844,15.307,11.699,15.307,5.651,0,8.784-3.941,8.784-3.941l-0.415,3.365h9.178l7.207-44.862-9.787-0.069zm-4.052,24.701c0,4.983-2.468,11.64-7.581,11.64-3.396,0-4.988-2.851-4.988-7.324,0-7.315,3.285-12.14,7.432-12.14,3.394,0,5.137,2.33,5.137,7.824z"/><path fill="#006" d="m30.749,100.42,5.743-33.87,0.844,33.87h6.499l12.125-33.87-5.371,33.87h9.658l7.437-44.919-15.342-0.117-9.126,27.504-0.25-27.387h-14.06l-7.544,44.922h9.387z"/><path fill="#006" d="m176.1,100.49c2.746-15.615,3.724-27.947,11.732-25.393,1.15-6.044,3.891-11.3,5.143-13.858,0,0-0.396-0.589-2.871-0.589-4.225,0-9.866,8.574-9.866,8.574l0.843-5.301h-8.786l-5.884,36.566h9.689z"/><g transform="translate(845.3001,0)"><path fill="#006" d="m-612.55,63.012c-6.472,0-11.43,2.079-11.43,2.079l-1.369,8.127s4.095-1.663,10.28-1.663c3.514,0,6.083,0.395,6.083,3.25,0,1.734-0.313,2.374-0.313,2.374s-2.771-0.231-4.055-0.231c-9.211,0-16.729,3.482-16.729,13.98,0,8.273,5.622,10.17,9.107,10.17,6.655,0,9.292-4.203,9.443-4.215l-0.078,3.488h8.309l3.705-25.98c0.001-11.025-9.615-11.379-12.953-11.379zm1.436,21.096c0.18,1.586-0.411,9.086-6.092,9.086-2.932,0-3.692-2.24-3.692-3.562,0-2.584,1.402-5.683,8.315-5.683,1.611,0,1.199,0.116,1.469,0.159z"/></g><path fill="#006" d="m255.27,100.49c1.508-11.488,4.299-27.616,11.731-25.393,1.149-6.044,0.041-6.028-2.433-6.028-4.228,0-5.164,0.154-5.164,0.154l0.844-5.301h-8.785l-5.884,36.567h9.691v0.001z"/></g><path fill="#FFF" d="m122.43,113.06,1.181-8.019c-0.645,0-1.594,0.276-2.431,0.276-3.284,0-3.646-1.746-3.437-3.037l2.66-16.363h4.991l1.205-8.87h-4.706l0.958-5.516h-9.434c-0.208,0.208-5.569,31.023-5.569,34.775,0,5.555,3.119,8.029,7.517,7.989,3.444-0.029,6.126-0.982,7.072-1.236z"/><path fill="#FFF" d="m125.42,97.77c0,13.332,8.8,16.5,16.297,16.5,6.92,0,9.965-1.547,9.965-1.547l1.662-9.099s-5.264,2.319-10.018,2.319c-10.13,0-8.356-7.553-8.356-7.553h19.172s1.238-6.113,1.238-8.604c0-6.216-3.094-13.79-13.452-13.79-9.486,0.002-16.508,10.223-16.508,21.774zm16.544-13.325c5.324,0,4.342,5.983,4.342,6.467h-10.474c0-0.618,0.99-6.467,6.132-6.467z"/><path fill="#FFF" d="m201.71,113.06,1.688-10.285s-4.629,2.321-7.806,2.321c-6.692,0-9.376-5.11-9.376-10.6,0-11.137,5.758-17.264,12.168-17.264,4.807,0,8.665,2.699,8.665,2.699l1.54-9.993s-5.721-2.315-10.625-2.315c-10.891,0-21.486,9.448-21.486,27.192,0,11.766,5.721,19.537,16.979,19.537,3.183,0.001,8.253-1.292,8.253-1.292z"/><path fill="#FFF" d="m70.547,76.143c-6.469,0-11.428,2.079-11.428,2.079l-1.369,8.127s4.093-1.663,10.28-1.663c3.513,0,6.083,0.395,6.083,3.25,0,1.734-0.315,2.374-0.315,2.374s-2.771-0.232-4.054-0.232c-8.159,0-16.73,3.482-16.73,13.98,0,8.272,5.623,10.17,9.108,10.17,6.656,0,9.525-4.319,9.678-4.332l-0.311,3.605h8.307l3.706-25.98c0-11.022-9.615-11.377-12.955-11.377zm2.021,21.154c0.18,1.587-0.995,9.026-6.675,9.026-2.93,0-3.692-2.238-3.692-3.562,0-2.582,1.403-5.682,8.316-5.682,1.608,0.002,1.78,0.174,2.051,0.218z"/><path fill="#FFF" d="m92.331,114.04c2.125,0,14.273,0.54,14.273-11.995,0-11.719-11.245-9.404-11.245-14.112,0-2.344,1.833-3.082,5.183-3.082,1.33,0,6.447,0.423,6.447,0.423l1.19-8.33c0,0.001-3.312-0.741-8.704-0.741-6.979,0-14.063,2.786-14.063,12.318,0,10.801,11.812,9.717,11.812,14.267,0,3.037-3.3,3.284-5.843,3.284-4.401,0-8.364-1.51-8.378-1.438l-1.258,8.246c0.228,0.07,2.672,1.16,10.586,1.16z"/><path fill="#FFF" d="m279.85,68.668-2.035,12.627s-3.551-4.905-9.11-4.905c-8.644,0-15.849,10.422-15.849,22.397,0,7.73,3.843,15.304,11.699,15.304,5.651,0,8.784-3.94,8.784-3.94l-0.415,3.365h9.176l7.207-44.863-9.457,0.015zm-4.381,24.62c0,4.983-2.467,11.639-7.582,11.639-3.395,0-4.986-2.85-4.986-7.323,0-7.314,3.285-12.14,7.43-12.14,3.396-0.001,5.138,2.332,5.138,7.824z"/><path fill="#FFF" d="m19.466,113.56,5.743-33.87,0.843,33.87h6.5l12.125-33.87-5.371,33.87h9.658l7.438-44.928h-14.935l-9.301,27.563-0.484-27.563h-13.767l-7.545,44.923h9.096z"/><path fill="#FFF" d="m164.82,113.62c2.746-15.616,3.255-28.296,9.808-25.975,1.147-6.044,2.254-8.382,3.506-10.94,0,0-0.587-0.123-1.819-0.123-4.225,0-7.355,5.772-7.355,5.772l0.841-5.301h-8.784l-5.885,36.567h9.688z"/><g transform="translate(847.0062,0)"><path fill="#FFF" d="m-623.53,76.143c-6.469,0-11.428,2.079-11.428,2.079l-1.368,8.127s4.093-1.663,10.28-1.663c3.513,0,6.081,0.395,6.081,3.25,0,1.734-0.313,2.374-0.313,2.374s-2.771-0.232-4.055-0.232c-8.158,0-16.729,3.482-16.729,13.98,0,8.272,5.622,10.17,9.107,10.17,6.656,0,9.525-4.319,9.677-4.332l-0.309,3.605h8.307l3.705-25.981c0.001-11.022-9.615-11.377-12.955-11.377zm2.024,21.154c0.18,1.587-0.996,9.026-6.678,9.026-2.93,0-3.69-2.238-3.69-3.562,0-2.582,1.403-5.682,8.315-5.682,1.608,0.002,1.779,0.174,2.053,0.218z"/></g><g transform="translate(442.2857,0)"><path fill="#FFF" d="m-198.26,113.62c2.747-15.616,3.256-28.296,9.807-25.975,1.149-6.044,2.257-8.382,3.508-10.94,0,0-0.587-0.123-1.819-0.123-4.225,0-7.355,5.772-7.355,5.772l0.841-5.301h-8.784l-5.885,36.567h9.687z"/></g><path fill="#FFF" d="m289.1,107.98c0.479,0,0.951,0.123,1.406,0.373,0.459,0.242,0.816,0.598,1.072,1.059,0.257,0.458,0.383,0.935,0.383,1.434,0,0.493-0.126,0.969-0.379,1.424-0.251,0.455-0.604,0.812-1.059,1.063-0.454,0.25-0.93,0.376-1.424,0.376-0.498,0-0.974-0.126-1.429-0.376-0.454-0.253-0.806-0.608-1.058-1.063-0.256-0.455-0.381-0.931-0.381-1.424,0-0.499,0.127-0.976,0.384-1.434,0.258-0.461,0.616-0.815,1.073-1.059,0.461-0.25,0.933-0.373,1.412-0.373m0,0.472c-0.401,0-0.793,0.104-1.176,0.313-0.382,0.204-0.679,0.499-0.894,0.885-0.214,0.381-0.322,0.78-0.322,1.194s0.104,0.81,0.313,1.188c0.213,0.377,0.509,0.673,0.891,0.886,0.378,0.208,0.773,0.313,1.188,0.313,0.412,0,0.81-0.105,1.188-0.313,0.378-0.213,0.674-0.509,0.884-0.886,0.211-0.381,0.314-0.774,0.314-1.188s-0.107-0.813-0.321-1.194c-0.213-0.386-0.51-0.681-0.894-0.885-0.38-0.208-0.769-0.313-1.171-0.313m-1.255,3.976v-3.083h1.061c0.361,0,0.625,0.029,0.785,0.088,0.162,0.055,0.289,0.154,0.388,0.297,0.097,0.142,0.146,0.291,0.146,0.451,0,0.225-0.082,0.422-0.244,0.588-0.158,0.166-0.371,0.262-0.637,0.28,0.106,0.046,0.194,0.101,0.262,0.163,0.123,0.122,0.275,0.326,0.455,0.611l0.377,0.604h-0.609l-0.271-0.485c-0.216-0.383-0.389-0.621-0.521-0.718-0.091-0.071-0.224-0.106-0.399-0.106h-0.291v1.311l-0.502-0.001m0.498-1.735h0.604c0.289,0,0.484-0.043,0.588-0.129,0.105-0.084,0.16-0.199,0.16-0.342,0-0.091-0.025-0.173-0.075-0.242-0.051-0.074-0.122-0.127-0.213-0.164-0.091-0.035-0.254-0.053-0.498-0.053h-0.565v0.93"/></g></svg>
