<?xml version="1.0" encoding="UTF-8" standalone="no"?>
<svg xmlns:rdf="http://www.w3.org/1999/02/22-rdf-syntax-ns#" xmlns="http://www.w3.org/2000/svg" xml:space="preserve" height="18.336" width="59.163" version="1.1" xmlns:cc="http://creativecommons.org/ns#" xmlns:dc="http://purl.org/dc/elements/1.1/" viewBox="0 0 59.162872 18.335709"><metadata><rdf:RDF><cc:Work rdf:about=""><dc:format>image/svg+xml</dc:format><dc:type rdf:resource="http://purl.org/dc/dcmitype/StillImage"/><dc:title/></cc:Work></rdf:RDF></metadata><g transform="matrix(0.41085329,0,0,-0.41085329,-27.672208,45.700592)"><g transform="matrix(0.6384875,0,0,0.6384875,24.348951,24.07854)"><g transform="translate(143.448,67.609)"><path fill-rule="nonzero" fill="#2b3894" d="m0,0,10.938,67.713,17.484,0l-10.937-67.713h-17.485"/></g><g transform="translate(224.353,133.66)"><path fill-rule="nonzero" fill="#2b3894" d="m0,0c-3.457,1.359-8.894,2.842-15.667,2.842-17.286,0-29.454-9.19-29.555-22.348-0.11-9.732,8.683-15.161,15.312-18.396,6.813-3.316,9.102-5.438,9.075-8.403-0.047-4.535-5.438-6.613-10.465-6.613-7,0-10.719,1.023-16.469,3.551l-2.249,1.078-2.445-15.157c4.077-1.886,11.635-3.523,19.479-3.609,18.371,0,30.308,9.078,30.448,23.129,0.063,7.718-4.596,13.569-14.686,18.399-6.11,3.139-9.86,5.219-9.817,8.397,0.004,2.815,3.168,5.827,10.016,5.827,5.719,0.092,9.859-1.225,13.085-2.601l1.57-0.775,2.368,14.679"/></g><g transform="translate(247.634,91.616)"><path fill-rule="nonzero" fill="#2b3894" d="m0,0c1.449,3.892,6.965,18.926,6.965,18.926-0.102-0.178,1.441,3.923,2.324,6.461l1.18-5.84s3.355-16.162,4.046-19.547h-14.515zm21.57,43.637-13.512,0c-4.191,0-7.328-1.198-9.164-5.613l-25.965-62.055h18.364s2.996,8.348,3.676,10.18c2.003,0,19.847-0.035,22.394-0.035,0.524-2.363,2.129-10.145,2.129-10.145h16.228l-14.15,67.668"/></g><g transform="translate(128.78,135.265)"><path fill-rule="nonzero" fill="#2b3894" d="m0,0-17.113-46.164-1.833,9.384c-3.189,10.812-13.116,22.531-24.22,28.403l15.656-59.22,18.504,0.011,27.534,67.586h-18.528"/></g><g transform="translate(95.781,135.311)"><path fill-rule="nonzero" fill="#f79510" d="m0,0-28.195,0-0.233-1.403c21.94-5.609,36.456-19.148,42.481-35.423l-6.127,31.113c-1.057,4.291-4.129,5.563-7.926,5.713"/></g><g transform="translate(288.329,72.034)"><path fill-rule="nonzero" fill="#2b3894" d="M0,0,0.828,0c0.585,0,0.705,0.342,0.705,0.617,0,0.473-0.307,0.583-0.783,0.583h-0.75v-1.2zm-0.715,1.726,1.707,0c0.398,0,1.271-0.105,1.271-1.109,0-0.266-0.079-0.641-0.65-0.885v-0.021c0.493-0.084,0.519-0.55,0.548-0.925,0.036-0.598,0-0.705,0.156-0.916h-0.741c-0.141,0.142-0.109,0.253-0.141,0.88,0,0.356-0.045,0.719-0.847,0.719h-0.588v-1.599h-0.715v3.856zm1.41-5.234c1.754,0,3.132,1.456,3.132,3.275,0,1.821-1.378,3.276-3.132,3.276-1.753,0-3.13-1.455-3.13-3.276,0-1.819,1.377-3.275,3.13-3.275zm0,7.137c2.163,0,3.862-1.731,3.862-3.862,0-2.13-1.699-3.861-3.862-3.861-2.162,0-3.859,1.731-3.859,3.861,0,2.131,1.697,3.862,3.859,3.862"/></g></g></g></svg>
